<?xml version="1.0" encoding="utf-8"?>
<!-- Generator: Adobe Illustrator 25.4.1, SVG Export Plug-In . SVG Version: 6.00 Build 0)  -->
<svg version="1.1" id="Layer_1" xmlns="http://www.w3.org/2000/svg" xmlns:xlink="http://www.w3.org/1999/xlink" x="0px" y="0px"
	 viewBox="0 0 500 500" style="enable-background:new 0 0 500 500;" xml:space="preserve">
<style type="text/css">
	.st0{fill:#5D398C;}
	.st1{fill:#FED700;}
	.st2{fill:#FFFFFF;}
</style>
<g>
	<path class="st0" d="M470.62,250.33c0,122.04-98.93,220.95-220.95,220.95c-122.04,0-220.97-98.92-220.97-220.95
		S127.64,29.38,249.67,29.38C371.69,29.38,470.62,128.3,470.62,250.33z"/>
	<path class="st1" d="M375.28,250.33c0,69.33-56.24,125.54-125.62,125.54c-69.37,0-125.61-56.21-125.61-125.54
		s56.24-125.54,125.61-125.54C319.04,124.79,375.28,181,375.28,250.33"/>
	<path class="st2" d="M118.96,335.05l10.42,14.41l-3.59,2.59l-7.54-10.42l-5.88,4.26l7.03,9.72l-3.66,2.65l-7.03-9.72l-9.16,6.63
		l-2.88-3.98L118.96,335.05z"/>
	<path class="st2" d="M142.62,382.64c-1.52,1.58-3.3,2.75-5.35,3.52c-2.62,1-5.2,1.24-7.75,0.72c-2.54-0.52-4.93-1.85-7.17-4
		c-3.66-3.52-5.28-7.43-4.84-11.73c0.34-3.36,1.74-6.31,4.19-8.86c1.76-1.83,3.77-3.13,6.05-3.92c1.77-0.61,3.54-0.85,5.3-0.73
		c1.76,0.12,3.39,0.54,4.87,1.25c1.48,0.71,2.94,1.75,4.36,3.11c1.72,1.65,2.94,3.34,3.67,5.07c0.72,1.73,1.08,3.48,1.07,5.26
		c-0.01,1.77-0.36,3.53-1.04,5.27C145.3,379.33,144.18,381.01,142.62,382.64z M138.99,379.05c1.34-1.39,2.25-2.93,2.74-4.62
		c0.49-1.69,0.47-3.36-0.06-5.01c-0.53-1.65-1.4-3.06-2.62-4.23c-1.2-1.15-2.62-1.94-4.27-2.38c-1.65-0.43-3.28-0.39-4.9,0.12
		c-1.62,0.51-3.08,1.45-4.39,2.81c-1.35,1.4-2.25,2.92-2.73,4.55c-0.47,1.64-0.49,3.26-0.05,4.86c0.44,1.6,1.32,3.04,2.63,4.3
		c1.98,1.9,4.26,2.82,6.85,2.75C134.77,382.12,137.04,381.07,138.99,379.05z"/>
	<path class="st2" d="M172.34,401.66c-1.13,1.88-2.61,3.41-4.44,4.61c-2.33,1.55-4.8,2.35-7.39,2.41c-2.59,0.05-5.22-0.72-7.87-2.32
		c-4.35-2.63-6.78-6.08-7.3-10.37c-0.41-3.35,0.3-6.54,2.13-9.56c1.31-2.17,2.99-3.89,5.03-5.16c1.59-0.98,3.26-1.61,5.01-1.88
		c1.75-0.27,3.42-0.22,5.03,0.14c1.6,0.37,3.25,1.06,4.93,2.07c2.04,1.23,3.6,2.61,4.69,4.14c1.09,1.53,1.83,3.16,2.21,4.89
		c0.38,1.73,0.43,3.52,0.15,5.37C174.23,397.84,173.51,399.73,172.34,401.66z M168.01,398.96c1-1.65,1.55-3.35,1.65-5.11
		c0.1-1.76-0.29-3.38-1.16-4.88c-0.88-1.5-2.04-2.68-3.49-3.55c-1.43-0.86-2.99-1.32-4.69-1.37c-1.7-0.06-3.29,0.34-4.75,1.19
		c-1.46,0.85-2.69,2.09-3.66,3.71c-1,1.66-1.55,3.34-1.65,5.05c-0.1,1.7,0.24,3.28,1.02,4.75c0.78,1.46,1.95,2.67,3.52,3.61
		c2.35,1.42,4.78,1.81,7.29,1.18C164.58,402.89,166.56,401.37,168.01,398.96z"/>
	<path class="st2" d="M201.77,398.73l-1.65,4.11l-7.74-3.11l-8.62,21.42l-4.58-1.84l8.62-21.42l-7.65-3.08l1.65-4.11L201.77,398.73z
		"/>
	<path class="st2" d="M205.66,399.83l9.18,2.1c2.38,0.54,4.13,1.2,5.23,1.97c1.1,0.78,1.88,1.8,2.35,3.06
		c0.47,1.26,0.55,2.58,0.23,3.95c-0.31,1.36-0.99,2.47-2.04,3.32c-1.05,0.85-2.38,1.34-4,1.46c1.68,0.61,2.93,1.64,3.73,3.1
		c0.8,1.46,1.01,3.06,0.61,4.8c-0.29,1.29-0.87,2.4-1.72,3.33c-0.85,0.93-1.88,1.61-3.08,2.03c-0.8,0.28-1.8,0.42-3,0.41
		c-1.2-0.01-2.51-0.18-3.92-0.5l-9.72-2.22L205.66,399.83z M205.14,423.59l4.81,1.1c1.29,0.3,2.35,0.39,3.18,0.27
		c0.83-0.11,1.52-0.44,2.07-0.98c0.55-0.54,0.91-1.18,1.08-1.93c0.17-0.72,0.12-1.42-0.13-2.09c-0.26-0.67-0.69-1.23-1.3-1.7
		c-0.61-0.46-1.59-0.85-2.94-1.16l-5.01-1.15L205.14,423.59z M207.83,411.87l4.77,1.09c0.53,0.12,1.12,0.19,1.78,0.19
		c0.45,0,0.92-0.11,1.4-0.33c0.48-0.22,0.89-0.53,1.22-0.92c0.33-0.4,0.57-0.86,0.69-1.4c0.14-0.62,0.09-1.25-0.14-1.9
		c-0.23-0.65-0.62-1.18-1.17-1.58c-0.55-0.4-1.42-0.73-2.61-1.01l-4.37-1L207.83,411.87z"/>
	<path class="st2" d="M234.38,426.54l-2.81,6.14l-5.42-0.27l13.33-26.88l4.15,0.21l10.41,28.08l-5.57-0.28l-2.23-6.4L234.38,426.54z
		 M236.24,422.41l8.52,0.43l-2.59-7.55c-0.41-1.2-0.77-2.46-1.1-3.81c-0.46,1.35-0.96,2.62-1.52,3.81L236.24,422.41z"/>
	<path class="st2" d="M264.12,405.14l2.47,22.96l11.68-1.26l0.48,4.4l-16.68,1.8l-2.95-27.36L264.12,405.14z"/>
	<path class="st2" d="M284.78,401.77l5.52,22.42l11.4-2.81l1.06,4.3l-16.29,4.01l-6.58-26.72L284.78,401.77z"/>
	<path class="st2" d="M333.43,385.95l-2.03,4.73c-1-0.43-2.05-0.62-3.15-0.56c-1.1,0.06-2.16,0.36-3.21,0.9
		c-1.41,0.73-2.56,1.78-3.45,3.17c-0.89,1.38-1.34,2.93-1.34,4.65c-0.01,1.72,0.42,3.41,1.27,5.07c0.84,1.62,1.93,2.9,3.27,3.82
		c1.34,0.92,2.84,1.41,4.49,1.45c1.65,0.04,3.18-0.3,4.6-1.04c2.35-1.21,3.7-3.11,4.05-5.69l5.21,0.78c-0.26,1.77-0.96,3.44-2.09,5
		c-1.13,1.57-2.72,2.88-4.77,3.94c-2.86,1.48-5.6,2.06-8.22,1.76c-2.62-0.3-4.97-1.25-7.05-2.86c-1.76-1.35-3.16-3.03-4.21-5.06
		c-1.24-2.4-1.8-4.87-1.69-7.41c0.11-2.54,0.84-4.83,2.18-6.87c1.34-2.04,3.22-3.69,5.65-4.94c1.51-0.78,2.95-1.28,4.33-1.49
		c1.37-0.21,2.62-0.23,3.75-0.06C331.72,385.35,332.53,385.58,333.43,385.95z"/>
	<path class="st2" d="M339.81,376.98l13.63,18.64l9.48-6.93l2.61,3.57l-13.54,9.9l-16.24-22.21L339.81,376.98z"/>
	<path class="st2" d="M355.74,364.1l11.02,10.91c1.05,1.04,1.83,1.73,2.34,2.07c0.75,0.51,1.59,0.85,2.53,1.02
		c0.93,0.17,1.87,0.09,2.81-0.25c0.94-0.33,1.76-0.85,2.45-1.55c0.67-0.68,1.17-1.46,1.49-2.35c0.31-0.88,0.4-1.78,0.26-2.69
		c-0.14-0.91-0.44-1.73-0.91-2.45c-0.36-0.57-1.09-1.4-2.18-2.48l-11.13-11.01l3.4-3.44l10.42,10.31c1.34,1.33,2.27,2.33,2.78,2.99
		c0.93,1.17,1.61,2.37,2.02,3.58c0.41,1.21,0.58,2.45,0.51,3.71c-0.07,1.26-0.38,2.46-0.93,3.61c-0.54,1.15-1.42,2.33-2.62,3.55
		c-1.24,1.26-2.59,2.18-4.03,2.78c-1.45,0.6-2.91,0.83-4.41,0.69c-1.49-0.14-2.87-0.56-4.14-1.27c-1.27-0.71-2.79-1.94-4.57-3.69
		l-10.62-10.51L355.74,364.1z"/>
	<path class="st2" d="M371.79,346.87l5.38-7.73c1.4-2.01,2.66-3.38,3.78-4.12c1.14-0.73,2.38-1.08,3.72-1.04
		c1.34,0.03,2.59,0.46,3.75,1.26c1.15,0.8,1.93,1.84,2.33,3.14c0.4,1.29,0.36,2.71-0.14,4.26c1.19-1.34,2.61-2.11,4.27-2.3
		c1.66-0.2,3.22,0.21,4.68,1.22c1.09,0.76,1.9,1.7,2.45,2.84c0.55,1.14,0.79,2.34,0.74,3.61c-0.04,0.85-0.28,1.83-0.74,2.94
		c-0.46,1.11-1.1,2.26-1.92,3.45l-5.69,8.18L371.79,346.87z M383.77,349.35l2.8-4.02c0.31-0.45,0.59-0.97,0.84-1.58
		c0.17-0.42,0.24-0.89,0.21-1.42c-0.03-0.53-0.16-1.02-0.4-1.48c-0.24-0.46-0.59-0.85-1.04-1.16c-0.52-0.36-1.12-0.55-1.82-0.58
		c-0.69-0.03-1.33,0.14-1.9,0.5c-0.57,0.36-1.21,1.04-1.91,2.05l-2.56,3.68L383.77,349.35z M393.65,356.21l2.82-4.05
		c0.76-1.09,1.24-2.04,1.44-2.85c0.2-0.81,0.16-1.57-0.14-2.28c-0.3-0.71-0.76-1.29-1.39-1.73c-0.61-0.42-1.27-0.64-1.99-0.66
		c-0.71-0.01-1.4,0.18-2.06,0.58c-0.66,0.39-1.38,1.16-2.17,2.3l-2.93,4.22L393.65,356.21z"/>
	<path class="st2" d="M104.25,162.02l13.3-21.93l3.36,2.04c6.36,3.85,10.4,9.1,12.13,15.72c1.77,6.7,0.7,13.27-3.19,19.69
		c-3.89,6.42-9.23,10.41-16,11.97c-6.68,1.53-13.2,0.37-19.55-3.49c-6.37-3.87-10.43-9.11-12.16-15.74
		c-1.73-6.71-0.65-13.28,3.24-19.7c2-3.29,4.51-6.09,7.54-8.39c3.05-2.29,6.39-3.9,10.02-4.82l1.4,8.06
		c-2.52,0.65-4.84,1.79-6.97,3.4c-2.12,1.59-3.87,3.54-5.27,5.84c-2.6,4.28-3.33,8.59-2.19,12.92c1.21,4.63,4.14,8.35,8.79,11.17
		c4.66,2.82,9.3,3.69,13.95,2.61c4.38-0.99,7.87-3.63,10.47-7.91c2.58-4.26,3.31-8.57,2.17-12.94c-0.88-3.35-2.75-6.28-5.61-8.78
		l-8.7,14.36L104.25,162.02z"/>
	<path class="st2" d="M151.26,85.17l19.11,25.43c3.18,4.23,4.27,9.06,3.26,14.49c-0.97,5.43-3.74,9.87-8.31,13.3
		c-4.55,3.42-9.57,4.84-15.06,4.26c-5.49-0.55-9.83-2.94-13.01-7.17l-19.11-25.43l6.8-5.11l19.11,25.43
		c1.87,2.48,4.42,3.9,7.67,4.25c3.25,0.32,6.21-0.52,8.87-2.52c2.68-2.01,4.32-4.63,4.92-7.84c0.57-3.22-0.08-6.07-1.95-8.55
		l-19.11-25.43L151.26,85.17z"/>
	<path class="st2" d="M189.25,120.52l-13.63-48.56l45.37,21.73l-8.82-31.41l8.19-2.3l13.77,49.03l-45.36-21.73l8.68,30.94
		L189.25,120.52z"/>
	<path class="st2" d="M242.91,107.31l5.83-50.1l33.71,37.33l3.77-32.41l8.45,0.98l-5.89,50.59l-33.71-37.33l-3.71,31.92
		L242.91,107.31z"/>
	<path class="st2" d="M317.83,94.27l16.47,7.92l-3.41,7.09l-16.47-7.92l-5.7,11.85l20.37,9.8l-3.41,7.09l-28.03-13.48l21.63-44.98
		l28.03,13.48l-3.4,7.06l-20.37-9.8L317.83,94.27z"/>
	<path class="st2" d="M352.22,152.65l2.5-19.43l-4.91-4.51l-10.8,11.76l-6.26-5.75l33.71-36.71l12.79,11.74
		c3.7,3.4,5.76,7.53,6.17,12.39c0.4,4.88-0.98,9.03-4.13,12.46c-3.17,3.45-7.19,5.17-12.06,5.17c-2.35,0.01-4.63-0.42-6.84-1.3
		l-2.71,21.02L352.22,152.65z M367.4,109.56l-12.27,13.35l6.52,5.99c1.98,1.82,4.29,2.72,6.91,2.69c2.62,0.01,4.78-0.91,6.46-2.75
		c1.69-1.84,2.41-4.06,2.19-6.68c-0.21-2.6-1.31-4.81-3.29-6.63L367.4,109.56z"/>
	<path class="st2" d="M375.95,169.49c-0.15,2.09,0.29,3.99,1.31,5.72c1.17,2,2.87,3.38,5.1,4.15c2.05,0.69,3.85,0.57,5.39-0.33
		c2.04-1.2,3.09-2.86,3.16-4.98c0.05-1.29-0.38-3.35-1.31-6.17c-1.61-4.94-2.3-8.58-2.07-10.91c0.36-3.91,2.76-7.17,7.19-9.77
		c3.58-2.1,7.44-2.53,11.57-1.29c4.13,1.24,7.33,3.8,9.6,7.67c1.54,2.63,2.33,5.44,2.37,8.43c0.03,2.99-0.68,5.73-2.14,8.2
		l-6.89-4.74c0.7-1.18,1.04-2.48,1.02-3.89c-0.02-1.41-0.4-2.75-1.14-4.01c-1.08-1.83-2.6-3.05-4.57-3.64
		c-1.97-0.59-3.81-0.39-5.5,0.61c-2.04,1.2-3.08,2.87-3.14,5.01c-0.05,1.29,0.38,3.35,1.31,6.18c1.61,4.94,2.3,8.58,2.07,10.9
		c-0.36,3.91-2.76,7.17-7.19,9.77c-3.52,2.07-7.45,2.36-11.77,0.88c-4.26-1.47-7.54-4.16-9.84-8.07c-1.98-3.36-2.82-6.99-2.52-10.89
		c0.28-4,1.69-7.2,4.22-9.59l5.63,6.35C376.71,166.1,376.09,167.58,375.95,169.49z"/>
	<path class="st0" d="M366.16,250.33c0,64.3-52.15,116.43-116.49,116.43c-64.34,0-116.5-52.13-116.5-116.43
		c0-64.29,52.16-116.43,116.5-116.43C314.01,133.9,366.16,186.04,366.16,250.33z"/>
	<path class="st2" d="M245.11,146.91v98.81h-19.88v-75.41c-34.22,10.5-59.19,42.4-59.19,80.02c0,37.62,24.97,69.52,59.19,80.02
		v-55.53h-32.12v-19.88h52v98.81c-54.97-2.42-98.93-47.88-98.93-103.42C146.19,194.79,190.15,149.34,245.11,146.91z"/>
	<path class="st2" d="M333.26,254.94h19.88c-1.27,28.77-14.35,54.5-34.48,72.53l-44.46-44.46v67.9c-6.41,1.56-13.05,2.54-19.87,2.84
		v-98.81h19.87v0.04l0.06-0.04l43.7,43.7C326.82,286.17,332.37,271.17,333.26,254.94z"/>
	<path class="st2" d="M254.34,245.72v-98.81c6.82,0.3,13.46,1.27,19.87,2.82v76.1h55.5c-4.55-14.83-13.11-27.91-24.42-37.98v-24.81
		c27.59,17.62,46.34,47.94,47.86,82.67H254.34z"/>
	<path class="st1" d="M60.56,243.3c0-1.98,0.82-3.67,2.45-5.07c1.65-1.4,3.63-2.1,5.94-2.1c2.32,0,4.3,0.7,5.94,2.1
		c1.65,1.4,2.47,3.09,2.47,5.07c0,2.15-0.72,3.91-2.17,5.26c-0.86,0.82-2.47,1.79-4.83,2.91c-1.61,0.76-2.73,1.4-3.37,1.94
		c-1.09,0.89-1.71,2.14-1.87,3.76h12.36v3.84H60.56v-3.04c0-2.88,0.81-5.1,2.42-6.66c0.95-0.94,2.68-2.01,5.2-3.2
		c1.57-0.75,2.65-1.37,3.22-1.86c0.97-0.81,1.46-1.8,1.46-2.96c0-0.92-0.38-1.7-1.14-2.35c-0.76-0.65-1.68-0.98-2.77-0.98
		c-1.07,0-1.99,0.33-2.75,0.98c-0.76,0.65-1.14,1.43-1.14,2.35H60.56z"/>
	<path class="st1" d="M99.68,238.31c1.62,1.37,2.81,3.22,3.56,5.55c0.5,1.58,0.75,3.22,0.75,4.93c0,1.71-0.25,3.35-0.75,4.94
		c-0.75,2.34-1.93,4.19-3.56,5.55c-1.8,1.5-3.96,2.26-6.5,2.26c-2.52,0-4.68-0.75-6.48-2.26c-1.64-1.37-2.82-3.22-3.56-5.55
		c-0.51-1.59-0.77-3.24-0.77-4.94c0-1.71,0.26-3.35,0.77-4.93c0.74-2.34,1.92-4.19,3.56-5.55c1.8-1.51,3.96-2.27,6.48-2.27
		C95.72,236.04,97.89,236.8,99.68,238.31z M96.8,241.32c-1.02-0.96-2.23-1.44-3.61-1.44c-2.74,0-4.66,1.66-5.73,4.99
		c-0.39,1.22-0.58,2.52-0.58,3.92c0,1.41,0.19,2.72,0.58,3.94c0.49,1.48,1.19,2.66,2.12,3.54c1.02,0.96,2.23,1.44,3.61,1.44
		c2.76,0,4.67-1.66,5.73-4.98c0.38-1.22,0.58-2.53,0.58-3.94c0-1.4-0.19-2.7-0.58-3.92C98.44,243.38,97.74,242.19,96.8,241.32z"/>
	<path class="st1" d="M414.38,237.28c1.7,1.43,2.94,3.36,3.72,5.81c0.52,1.65,0.78,3.37,0.78,5.15c0,1.78-0.26,3.51-0.78,5.17
		c-0.78,2.44-2.02,4.38-3.72,5.81c-1.88,1.57-4.14,2.36-6.79,2.36c-2.64,0-4.89-0.79-6.77-2.36c-1.71-1.43-2.95-3.36-3.72-5.81
		c-0.54-1.66-0.8-3.38-0.8-5.17c0-1.79,0.26-3.5,0.8-5.15c0.77-2.44,2.01-4.38,3.72-5.81c1.88-1.58,4.13-2.37,6.77-2.37
		C410.24,234.9,412.5,235.7,414.38,237.28z M411.36,240.42c-1.07-1-2.33-1.5-3.78-1.5c-2.87,0-4.87,1.74-5.99,5.22
		c-0.4,1.27-0.61,2.64-0.61,4.1c0,1.47,0.2,2.84,0.61,4.12c0.51,1.55,1.25,2.78,2.21,3.7c1.07,1,2.33,1.5,3.78,1.5
		c2.88,0,4.88-1.73,5.99-5.2c0.4-1.27,0.61-2.64,0.61-4.12c0-1.46-0.2-2.83-0.61-4.1C413.08,242.58,412.34,241.34,411.36,240.42z"/>
	<path class="st1" d="M439.4,237.13c1.68,1.45,2.53,3.19,2.53,5.22c0,2.48-1.32,4.23-3.95,5.25c3.08,1.38,4.62,3.39,4.62,6.02
		c0,2.2-0.9,4.07-2.72,5.62c-1.81,1.55-4,2.32-6.56,2.32c-2.57,0-4.76-0.77-6.58-2.32c-1.81-1.55-2.72-3.42-2.72-5.62
		c0-2.63,1.61-4.64,4.82-6.02c-2.77-1.03-4.15-2.78-4.15-5.25c0-2.03,0.84-3.77,2.53-5.22c1.68-1.44,3.72-2.16,6.11-2.16
		C435.69,234.97,437.72,235.69,439.4,237.13z M433.32,249.73l-0.26-0.02c-1.16,0.06-2.16,0.44-2.99,1.15
		c-0.9,0.76-1.35,1.68-1.35,2.76c0,1.09,0.45,2.02,1.35,2.78c0.89,0.77,1.97,1.15,3.25,1.15c1.27,0,2.34-0.38,3.23-1.15
		c0.9-0.76,1.35-1.68,1.35-2.78c0-1.08-0.45-2-1.35-2.76c-0.82-0.71-1.82-1.1-3-1.15L433.32,249.73z M433.32,239
		c-1.09,0-2.01,0.32-2.78,0.97c-0.77,0.66-1.16,1.45-1.16,2.38c0,0.93,0.39,1.72,1.16,2.38c0.7,0.6,1.55,0.93,2.55,0.97h0.45
		c0.99-0.04,1.84-0.37,2.54-0.97c0.77-0.66,1.16-1.45,1.16-2.38c0-0.93-0.38-1.72-1.16-2.38C435.32,239.33,434.4,239,433.32,239z"/>
	<path class="st2" d="M249.67,21C123.01,21,20.33,123.68,20.33,250.33s102.68,229.33,229.33,229.33S479,376.99,479,250.33
		S376.32,21,249.67,21z M249.67,467.99C129.45,467.99,32,370.55,32,250.33S129.45,32.68,249.67,32.68
		c120.2,0,217.65,97.44,217.65,217.65S369.87,467.99,249.67,467.99z"/>
</g>
</svg>
