<svg width="275" height="81" viewBox="0 0 275 81" fill="none" xmlns="http://www.w3.org/2000/svg">
<g clip-path="url(#clip0)">
<path d="M66.7577 36.489L64.6355 35.5377L63.5205 35.0241C63.4138 34.9756 63.3101 34.9205 63.2101 34.8592C62.9454 34.7073 62.7502 34.458 62.6662 34.1643C62.5822 33.8706 62.616 33.5557 62.7603 33.2865C63.4994 31.0374 64.2448 28.7862 64.9966 26.5328C65.0726 26.2918 65.155 26.0509 65.231 25.8099C65.4907 25.0172 65.7568 24.2182 66.0228 23.3938C65.8898 23.3938 65.8011 23.3938 65.7124 23.4382L56.5141 25.3406C56.2492 25.4001 55.9744 25.4001 55.7095 25.3406C55.3231 25.2518 55.076 24.9728 54.8417 24.4655C54.5376 23.7552 54.2081 23.045 53.9167 22.3284L53.1819 20.6606C53.1376 20.5591 53.0805 20.464 53.0235 20.3435L52.7258 20.6542L48.342 25.2772L48.0949 25.5372L47.8479 25.7972L46.4922 27.2367L46.2515 27.484C46.1754 27.5728 46.0931 27.6553 46.0107 27.744L45.4976 28.2831C45.3395 28.4801 45.1238 28.6228 44.8807 28.691C44.6376 28.7592 44.3793 28.7496 44.1419 28.6636L44.0153 28.6128C43.7664 28.4946 43.5667 28.2929 43.4509 28.0427C43.3352 27.7924 43.3107 27.5095 43.3818 27.2431L43.7238 25.4865C43.7238 25.3596 43.7808 25.2265 43.8062 25.0996L43.8822 24.7065C43.9392 24.4338 43.9899 24.1547 44.0469 23.8821C44.0469 23.7679 44.0913 23.6474 44.1166 23.5333C44.1419 23.4191 44.1609 23.2986 44.1863 23.1845L46.3909 11.9981C46.5049 11.4274 46.6126 10.8566 46.7266 10.2922C46.8153 9.86734 46.8976 9.43612 46.98 9.02392C46.9876 8.92895 46.9876 8.83353 46.98 8.73856L46.5619 8.96685C44.8198 9.95612 43.0713 10.9517 41.3229 11.9347L41.1962 12.0108H39.9418C39.7321 11.8533 39.5646 11.6463 39.4541 11.4083C37.5494 7.73025 35.6489 4.05219 33.7526 0.374114L33.5436 0.0253296C33.4675 0.171184 33.4105 0.272647 33.3599 0.380452C31.4594 4.03738 29.5589 7.69432 27.6584 11.3513C27.5326 11.6136 27.3484 11.8436 27.1199 12.0234H25.8529L25.7009 11.941L21.8999 9.79124L20.0375 8.73856C20.0375 8.86539 20.0375 8.94148 20.0375 9.01757C20.1261 9.4488 20.2085 9.88002 20.2972 10.2859C20.4112 10.8566 20.5189 11.4274 20.6329 11.9981C21.3382 15.5493 22.0393 19.1048 22.7362 22.6645C22.7362 22.7786 22.7805 22.8928 22.7995 23.0069C22.8185 23.1211 22.8502 23.2416 22.8692 23.3557C22.9769 23.8884 23.0783 24.4211 23.1859 24.9474C23.3316 25.7021 23.4837 26.463 23.6294 27.224C23.6832 27.4513 23.6832 27.688 23.6294 27.9153C23.5805 28.0916 23.4892 28.2533 23.3632 28.386C23.2373 28.5187 23.0807 28.6184 22.9072 28.6762C22.6706 28.7445 22.4196 28.7445 22.183 28.676C21.9465 28.6076 21.7342 28.4735 21.5705 28.2894C20.6076 27.2748 19.67 26.2601 18.6881 25.2518L18.441 24.9855L18.194 24.7255L16.4392 22.8547L14.0193 20.3181L13.8609 20.6669C13.6202 21.2186 13.3858 21.7767 13.145 22.3347L12.1695 24.5796C12.1126 24.7698 12.0101 24.9432 11.871 25.0847C11.7319 25.2261 11.5603 25.3314 11.3713 25.3913C11.1626 25.437 10.9465 25.437 10.7378 25.3913L2.73038 23.7235L1.06429 23.3874C1.1213 23.5586 1.15932 23.6728 1.19099 23.7869C1.41905 24.4591 1.64077 25.1377 1.8625 25.8162C2.70716 28.3148 3.53283 30.8133 4.33948 33.3119C4.47993 33.5798 4.51153 33.8917 4.42772 34.1824C4.3439 34.473 4.15115 34.7201 3.88969 34.8719C3.79396 34.9311 3.69448 34.9841 3.59193 35.0304L2.45798 35.5504L0.348436 36.5207L0.00636292 36.6982L0.215427 36.8821L1.34937 37.7826L4.59286 40.37C4.68155 39.7358 4.77659 39.1017 4.89062 38.4675C5.01732 38.6641 5.15036 38.8607 5.28972 39.0509L5.52411 39.3743L5.77115 39.6978C5.91685 39.888 6.06891 40.0783 6.22728 40.2622L6.4807 40.5665L6.73407 40.8519C6.98747 41.1246 7.24089 41.3973 7.50696 41.6573L7.76033 41.8983L8.26082 42.3612L8.52687 42.5895C11.4192 45.0446 14.9721 46.589 18.7388 47.0285C19.0239 47.0602 19.3089 47.092 19.594 47.111H19.9614L20.6963 47.149H21.0701C24.756 47.1678 28.3978 46.3459 31.7191 44.7456C35.425 42.989 38.0984 40.0148 41.5699 38.0617L41.8803 37.8904L42.1908 37.7319C42.9742 37.3502 43.7905 37.0403 44.6297 36.806C46.0841 36.3672 47.5855 36.1032 49.1022 36.0197C52.6834 35.8224 56.2429 36.6895 59.3331 38.5119C59.5169 38.6197 59.6942 38.7339 59.8716 38.848L60.4101 39.1968C61.0368 39.6258 61.6376 40.0917 62.2092 40.5919L65.6744 37.8334L65.7505 37.77L67.1061 36.6855C66.9667 36.5904 66.8654 36.5334 66.7577 36.489Z" fill="#ED2224"/>
<path d="M61.2906 41.4988C61.1385 41.4036 60.9865 41.3085 60.8281 41.2197L60.3657 40.9597C60.087 40.8075 59.8082 40.6617 59.5168 40.5285C58.7218 40.1413 57.9004 39.8107 57.0588 39.5392C54.8113 38.8111 52.4494 38.5016 50.0904 38.6261C48.4792 38.7162 46.8843 38.9971 45.3392 39.4631C44.5885 39.694 43.8558 39.9801 43.1473 40.3192L42.8369 40.4714L42.5265 40.63C43.274 42.6402 43.9835 44.4666 44.2876 45.2402C41.8877 48.658 39.0292 51.7286 35.7924 54.3657C31.8028 53.2377 27.7079 52.5237 23.5723 52.2349C23.1859 51.6008 21.8556 49.2544 21.5451 48.671H21.1651C20.918 48.671 20.6772 48.7027 20.4302 48.7091H20.0438C20.4239 49.47 21.8555 52.0257 22.3623 52.831C20.2421 55.7762 18.4911 58.9709 17.1487 62.3433C16.6039 62.394 16.0654 62.4194 15.546 62.4194C11.4409 62.4194 9.26803 60.8277 8.88793 60.5169C6.88374 57.2553 5.6488 53.5792 5.27701 49.7681C5.69291 48.3017 6.22896 46.8721 6.87973 45.4939L6.61367 45.2593L6.0942 44.7773L5.83448 44.5237C5.81087 44.5805 5.78335 44.6355 5.75213 44.6885L5.60643 44.5427C5.60643 44.4793 5.6064 44.4095 5.65075 44.3398C5.55572 44.2446 5.46073 44.1495 5.37205 44.048C5.28336 43.9466 5.18199 43.8451 5.08696 43.7373C4.99194 43.6295 4.74489 43.3568 4.58018 43.1602C4.41547 42.9637 4.40276 42.9383 4.30774 42.8305C4.21272 42.7227 4.13038 42.6085 4.04802 42.4944C2.72457 47.0147 2.48182 51.7833 3.3394 56.4148C4.19699 61.0464 6.13084 65.4111 8.98475 69.1563C11.8387 72.9016 15.5326 75.9223 19.7681 77.9745C24.0036 80.0267 28.662 81.0529 33.3669 80.97C38.0717 80.8872 42.6912 79.6977 46.852 77.4977C51.0128 75.2976 54.5983 72.1487 57.3189 68.3053C60.0394 64.4619 61.8188 60.0319 62.5131 55.373C63.2075 50.7141 62.7974 45.957 61.3159 41.4861L61.2906 41.4988ZM5.47339 45.1705L5.55574 45.0627C5.49873 45.1832 5.44171 45.2973 5.39103 45.4241C5.39103 45.3417 5.42271 45.2656 5.43538 45.1895L5.47339 45.1705ZM25.6122 77.1443C25.3334 77.1443 24.9787 77.1951 24.5289 77.1951C23.8928 77.196 23.2576 77.1494 22.6284 77.0556C17.5126 75.0453 13.1046 71.566 9.95854 67.055L9.54675 66.1799C9.03688 64.922 8.82022 63.5644 8.91326 62.2101C10.9243 63.3113 13.1912 63.8584 15.4826 63.7955C16.0401 63.7955 16.6356 63.7638 17.2437 63.7067C17.973 64.8711 18.7616 65.9972 19.6066 67.0804C21.272 69.2885 23.3084 71.1897 25.6248 72.699C25.4427 74.1749 25.4385 75.6674 25.6122 77.1443ZM46.6569 74.6077L46.1311 75.5399L46.0931 75.597C42.0065 77.8067 37.4342 78.9618 32.7897 78.958C31.7165 78.9566 30.6442 78.8952 29.5778 78.7741C28.6289 78.487 27.752 78.0006 27.0059 77.3473C26.7769 75.8779 26.7556 74.3835 26.9425 72.9082C30.8195 72.0308 34.4897 70.4092 37.7499 68.1331C38.8079 68.8116 41.4495 70.0355 46.4415 70.0355C46.8722 70.0355 47.322 70.0355 47.7845 70.0038C47.8695 71.6201 47.4773 73.2257 46.6569 74.6204V74.6077ZM48.2596 68.6214C47.6641 68.6594 47.0686 68.6784 46.4985 68.6784C41.6143 68.6784 39.1436 67.3657 38.4404 66.9155C38.4088 65.3999 38.1997 59.7369 36.7173 55.3423C39.975 52.664 42.8617 49.5632 45.3012 46.1217C48.3323 47.0284 51.4144 47.7548 54.5312 48.2968C55.7596 51.9497 56.374 55.7813 56.3493 59.6355C51.9149 66.0721 48.8487 68.2536 48.2596 68.634V68.6214ZM59.2317 60.1745L57.7114 59.4135C57.7301 55.4251 57.0725 51.4625 55.7665 47.6944C56.6814 45.2563 57.3189 42.7227 57.667 40.1417C57.9838 40.2558 58.3702 40.4144 58.7946 40.5983C61.2836 46.8602 61.4343 53.8104 59.2191 60.1745H59.2317Z" fill="#005BAA"/>
<path d="M74.1885 30.268H83.9887V32.868H80.6122V35.7153C80.6068 36.0865 80.6301 36.4575 80.6818 36.8251C80.7246 37.1354 80.8033 37.4398 80.9163 37.7319C81.0336 38.0206 81.1756 38.2985 81.3407 38.5627C81.5181 38.8354 81.7208 39.1271 81.9742 39.4315C82.4176 39.9959 82.9181 40.5793 83.4756 41.1944C84.0331 41.8095 84.5652 42.3676 85.072 42.8812L83.1081 44.7837C82.652 44.3017 82.2022 43.8071 81.7525 43.3125C81.3027 42.8178 80.8972 42.3486 80.5362 41.911C80.2511 41.5749 79.9977 41.2768 79.7696 40.9724C79.5845 40.7528 79.4291 40.5097 79.3072 40.2495C79.1861 40.5146 79.033 40.7638 78.8511 40.9915C78.623 41.3022 78.3569 41.6256 78.0592 42.0061C77.6664 42.4881 77.2167 43.0144 76.7099 43.5851C76.2094 44.1559 75.7089 44.6949 75.2211 45.1895L73.2193 43.1476C73.7071 42.6656 74.2329 42.1076 74.7904 41.4798C75.3478 40.852 75.8546 40.2495 76.3108 39.6724C76.5373 39.3769 76.7488 39.07 76.9443 38.7529C77.1163 38.4752 77.2626 38.1822 77.3814 37.8778C77.495 37.564 77.5736 37.2386 77.6158 36.9075C77.6675 36.5123 77.6907 36.1139 77.6854 35.7153V32.8426H74.1695L74.1885 30.268ZM88.1254 35.9753H90.0259V28.1182H92.8576V50.5544H89.9879V38.6134H88.0874V49.4891H85.2557V28.5621H88.0874L88.1254 35.9753Z" fill="#414042"/>
<path d="M103.089 35.8168C103.107 36.8099 102.996 37.8011 102.759 38.7656C102.53 39.6169 102.138 40.4158 101.606 41.1183C100.95 41.9649 100.188 42.7236 99.3383 43.3759C98.3754 44.1369 97.1654 45.031 95.702 46.0393L94.093 43.6993C95.039 43.0609 95.8541 42.4859 96.5382 41.9744C97.138 41.5372 97.7132 41.0672 98.2613 40.5666C98.6645 40.1966 99.0315 39.7889 99.3573 39.349C99.6209 38.9978 99.8341 38.6115 99.9908 38.2012L94.2323 38.3915L94.1119 35.7914L100.251 35.671V32.849H94.7011V30.2426H103.108L103.089 35.8168ZM108.157 35.8168H110.234V28.1182H113.066V50.5544H110.234V38.4168H108.169V49.4891H105.337V28.5621H108.169L108.157 35.8168Z" fill="#414042"/>
<path d="M118.603 41.9617H119.87C121.004 41.9617 122.214 41.9237 123.506 41.8412C124.798 41.7588 126.002 41.6446 127.117 41.4798L127.446 44.1115C126.895 44.2066 126.293 44.2891 125.628 44.3525C124.963 44.4159 124.279 44.4666 123.55 44.511C122.822 44.5554 122.093 44.5808 121.359 44.5934C120.624 44.6061 119.883 44.5934 119.16 44.5934H115.581V29.9255H118.603V41.9617ZM131.735 35.8358H134.757V38.4929H131.735V50.5418H128.739V28.1182H131.735V35.8358Z" fill="#414042"/>
<path d="M135.701 30.046H145.837V32.6778H138.704V42.1076H140.186C141.32 42.1076 142.536 42.0695 143.822 41.9871C145.108 41.9046 146.318 41.7905 147.44 41.6256L147.769 44.232C147.218 44.3271 146.61 44.4095 145.951 44.4729C145.292 44.5364 144.595 44.5871 143.873 44.6315C143.151 44.6759 142.416 44.7012 141.675 44.7139C140.934 44.7266 140.205 44.7139 139.483 44.7139H135.682L135.701 30.046ZM152.007 35.9817H155.029V38.6388H152.007V50.5544H149.011V28.1182H152.007V35.9817Z" fill="#414042"/>
<path d="M164.107 30.2426V32.868H158.583V41.9617H159.267C160.23 41.9617 161.167 41.9617 162.175 41.892C163.163 41.8408 164.149 41.7371 165.127 41.5812L165.431 44.1812C164.42 44.365 163.398 44.4794 162.371 44.5237C161.294 44.5681 160.261 44.5934 159.267 44.5934H155.631V30.2426H164.107ZM169.257 35.7661H171.196V28.1182H174.053V50.5544H171.196V38.3915H169.257V49.4891H166.4V28.5621H169.257V35.7661Z" fill="#414042"/>
<path d="M183.257 30.3631H188.009V32.9441H175.446V30.3631H180.286V27.928H183.257V30.3631ZM181.781 42.7607C181.028 42.7731 180.277 42.6639 179.558 42.4373C178.963 42.2436 178.407 41.9451 177.917 41.5559C177.488 41.2113 177.138 40.7788 176.891 40.2876C176.656 39.808 176.534 39.2807 176.536 38.7466V37.8271C176.534 37.2929 176.656 36.7656 176.891 36.2861C177.138 35.7948 177.488 35.3624 177.917 35.0178C178.407 34.6286 178.963 34.3301 179.558 34.1363C181.004 33.7038 182.546 33.7038 183.992 34.1363C184.592 34.3287 185.152 34.6272 185.646 35.0178C186.074 35.3624 186.424 35.7948 186.672 36.2861C186.91 36.7646 187.031 37.2926 187.027 37.8271V38.7085C187.031 39.243 186.91 39.771 186.672 40.2495C186.424 40.7407 186.074 41.1732 185.646 41.5178C185.152 41.9083 184.592 42.2069 183.992 42.3993C183.279 42.6376 182.533 42.7596 181.781 42.7607ZM181.971 47.7325H193.184V50.3325H178.994V44.0861H181.997L181.971 47.7325ZM181.781 36.1719C181.424 36.1638 181.068 36.2196 180.73 36.3368C180.449 36.4341 180.19 36.5825 179.963 36.7744C179.77 36.932 179.613 37.1286 179.501 37.3514C179.402 37.5482 179.35 37.7653 179.349 37.9856V38.5627C179.35 38.783 179.402 39 179.501 39.1968C179.613 39.4197 179.77 39.6163 179.963 39.7739C180.19 39.9658 180.449 40.1141 180.73 40.2115C181.414 40.4313 182.149 40.4313 182.833 40.2115C183.112 40.1116 183.371 39.9635 183.599 39.7739C183.789 39.6144 183.944 39.4181 184.056 39.1968C184.159 39.0015 184.214 38.7838 184.214 38.5627V37.9856C184.214 37.7645 184.159 37.5468 184.056 37.3514C183.944 37.1302 183.789 36.9339 183.599 36.7744C183.371 36.5848 183.112 36.4367 182.833 36.3368C182.495 36.2201 182.139 36.1643 181.781 36.1719ZM192.639 34.5992H195.522V37.2563H192.639V44.3715H189.668V28.1182H192.639V34.5992Z" fill="#414042"/>
<path d="M198.138 43.5091H204.087V41.2896H195.515V38.753H215.635V41.2896H207.064V43.5091H212.918V50.8399H209.946V46.014H198.138V43.5091ZM198.043 29.9066H204.087V27.5856H207.064V29.9066H213.108V32.3671H207.064V32.5129C207.059 32.8769 207.19 33.2296 207.431 33.5022C207.727 33.8301 208.106 34.0712 208.527 34.1998C209.471 34.5232 210.39 34.8339 211.277 35.0685C212.164 35.3032 213.051 35.5695 213.937 35.7978L213.177 38.1125L210.561 37.3768C209.63 37.1105 208.762 36.8505 207.964 36.5905C207.393 36.4262 206.841 36.2031 206.317 35.9246C206.033 35.7989 205.791 35.5942 205.62 35.3349C205.44 35.5997 205.19 35.8086 204.897 35.9373C204.366 36.218 203.808 36.4453 203.231 36.6159C202.395 36.8885 201.527 37.1549 200.621 37.4085C199.716 37.6622 198.841 37.9095 197.992 38.1315L197.232 35.7978L199.823 35.0812C200.729 34.8339 201.648 34.5422 202.598 34.1998C203.548 33.8573 204.106 33.2675 204.106 32.5129V32.3671H198.062L198.043 29.9066Z" fill="#414042"/>
<path d="M229.452 39.4569C229.69 38.395 229.859 37.319 229.959 36.2354C230.041 35.2144 230.085 34.149 230.085 33.0646V32.05H218.302V29.4246H233.094V32.4876C233.094 33.7559 233.044 34.9734 232.942 36.1847C232.853 37.2836 232.698 38.3762 232.48 39.4569H235.977V42.0379H227.393V50.5545H224.396V42.0379H215.825V39.4569H229.452Z" fill="#414042"/>
<path d="M243.971 30.2172H248.862V32.7538H236.192V30.2172H240.981V27.8074H243.959L243.971 30.2172ZM242.508 41.1182C241.76 41.1293 241.015 41.0397 240.291 40.8519C239.706 40.7075 239.152 40.4583 238.656 40.1163C238.242 39.8313 237.899 39.4535 237.656 39.0129C237.428 38.5854 237.311 38.1082 237.313 37.6241V36.9011C237.309 36.4168 237.427 35.9392 237.656 35.5124C237.899 35.0697 238.241 34.6897 238.656 34.4026C239.155 34.0656 239.708 33.8168 240.291 33.667C241.748 33.3118 243.268 33.3118 244.725 33.667C245.308 33.8168 245.861 34.0656 246.36 34.4026C246.775 34.6897 247.118 35.0697 247.361 35.5124C247.589 35.9392 247.707 36.4168 247.703 36.9011V37.6241C247.705 38.1082 247.588 38.5854 247.361 39.0129C247.117 39.4535 246.774 39.8313 246.36 40.1163C245.864 40.4583 245.31 40.7075 244.725 40.8519C244.001 41.0394 243.256 41.1289 242.508 41.1182ZM242.508 35.7407C241.875 35.7059 241.246 35.8557 240.696 36.1719C240.527 36.259 240.383 36.3881 240.277 36.5469C240.172 36.7056 240.109 36.8887 240.094 37.0787V37.5099C240.11 37.6998 240.173 37.8826 240.278 38.0413C240.383 38.1999 240.527 38.3291 240.696 38.4168C241.244 38.7117 241.862 38.8479 242.483 38.8099C243.101 38.8491 243.718 38.7128 244.263 38.4168C244.438 38.3343 244.589 38.2072 244.701 38.048C244.812 37.8889 244.879 37.7034 244.896 37.5099V37.0787C244.881 36.8849 244.813 36.6988 244.702 36.5395C244.591 36.3801 244.439 36.2533 244.263 36.1719C243.731 35.8643 243.122 35.7148 242.508 35.7407ZM254.361 42.0124V50.5988H240.38V42.0124H243.332V43.9149H251.409V42.0124H254.361ZM251.409 48.1383V46.3563H243.332V48.1383H251.409ZM251.409 39.7231H248.716V37.1865H251.409V35.9182H248.716V33.3816H251.409V28.1182H254.361V40.9978H251.409V39.7231Z" fill="#414042"/>
<path d="M256.888 44.0608H259.802C260.71 44.0608 261.566 44.0608 262.368 44.0608V42.393C261.756 42.3002 261.162 42.1141 260.607 41.8413C260.141 41.61 259.714 41.3084 259.34 40.9471C259.034 40.6395 258.791 40.2746 258.626 39.873C258.461 39.4715 258.376 39.0413 258.377 38.6071V37.7383C258.378 37.246 258.491 36.7603 258.707 36.3178C258.94 35.8246 259.282 35.3909 259.707 35.0495C260.211 34.6496 260.785 34.3464 261.399 34.1554C262.968 33.7074 264.631 33.7074 266.201 34.1554C266.819 34.3451 267.397 34.6483 267.905 35.0495C268.328 35.3926 268.67 35.8259 268.906 36.3178C269.122 36.7603 269.234 37.246 269.235 37.7383V38.6071C269.236 39.0284 269.156 39.4459 269.001 39.8373C268.835 40.2539 268.585 40.6317 268.266 40.9471C267.903 41.3076 267.486 41.6092 267.031 41.8413C266.483 42.1105 265.898 42.2965 265.295 42.393V44.0101C266.473 43.9783 267.518 43.9339 268.424 43.8769C269.33 43.8198 270.147 43.75 270.889 43.674L271.104 46.2106C270.426 46.293 269.641 46.3564 268.754 46.4135C267.867 46.4705 266.853 46.5149 265.681 46.5467C264.509 46.5784 263.217 46.6037 261.76 46.6227C260.303 46.6418 258.675 46.6227 256.863 46.6227L256.888 44.0608ZM262.368 30.528V28.0739H265.32V30.528H270.065V33.0646H257.338V30.528H262.368ZM263.832 36.1973C263.429 36.1919 263.028 36.2453 262.641 36.3559C262.339 36.4426 262.057 36.5869 261.811 36.7807C261.614 36.9413 261.454 37.1425 261.342 37.3705C261.241 37.5668 261.187 37.7838 261.184 38.0046V38.29C261.186 38.5109 261.24 38.7282 261.342 38.9242C261.456 39.1472 261.616 39.3438 261.811 39.5012C262.057 39.6951 262.339 39.8394 262.641 39.9261C263.028 40.0367 263.429 40.0901 263.832 40.0847C264.55 40.1444 265.265 39.9366 265.84 39.5012C266.027 39.3538 266.181 39.1676 266.29 38.9553C266.4 38.743 266.462 38.5096 266.473 38.271V37.9856C266.463 37.7469 266.401 37.5132 266.292 37.3007C266.182 37.0883 266.028 36.9022 265.84 36.7554C265.265 36.32 264.55 36.1123 263.832 36.172V36.1973ZM275 50.5545H272.048V28.1182H275V50.5545Z" fill="#414042"/>
<path d="M74.2329 57.0291H76.051V60.5296L79.2819 57.0291H81.5561L78.3189 60.3647L81.8665 65.4759H79.5859L77.09 61.671L76.051 62.7491V65.4696H74.2329V57.0291Z" fill="#414042"/>
<path d="M82.9561 60.073C83.5693 59.5061 84.3734 59.1913 85.2082 59.1913C86.0429 59.1913 86.847 59.5061 87.4602 60.073C87.7498 60.3897 87.9739 60.7606 88.1196 61.1644C88.2653 61.5682 88.3297 61.9969 88.3091 62.4257C88.3289 62.8515 88.2641 63.2771 88.1184 63.6777C87.9727 64.0783 87.749 64.446 87.4602 64.7594C86.847 65.3263 86.0429 65.6411 85.2082 65.6411C84.3734 65.6411 83.5693 65.3263 82.9561 64.7594C82.6674 64.446 82.4437 64.0783 82.298 63.6777C82.1523 63.2771 82.0874 62.8515 82.1072 62.4257C82.0866 61.9969 82.151 61.5682 82.2967 61.1644C82.4424 60.7606 82.6665 60.3897 82.9561 60.073ZM83.8303 63.155C83.8736 63.3786 83.9551 63.5931 84.0711 63.7891C84.18 63.9742 84.3378 64.1256 84.5272 64.2267C84.7343 64.3413 84.9684 64.3982 85.205 64.3916C85.4435 64.3972 85.6794 64.3404 85.8892 64.2267C86.0786 64.1256 86.2364 63.9742 86.3453 63.7891C86.4585 63.5918 86.5398 63.3778 86.586 63.155C86.638 62.9154 86.6635 62.6708 86.662 62.4257C86.6632 62.1764 86.6377 61.9276 86.586 61.6837C86.5403 61.4608 86.459 61.2466 86.3453 61.0496C86.2326 60.8675 86.0757 60.717 85.8892 60.612C85.6788 60.5005 85.443 60.4458 85.205 60.4535C84.969 60.4449 84.7349 60.4996 84.5272 60.612C84.3406 60.717 84.1838 60.8675 84.0711 61.0496C83.9546 61.2453 83.8731 61.4599 83.8303 61.6837C83.7787 61.9276 83.7532 62.1764 83.7543 62.4257C83.757 62.6713 83.7868 62.9159 83.843 63.155H83.8303Z" fill="#414042"/>
<path d="M89.2911 59.3564H90.8558V60.4915C91.0201 60.1216 91.2859 59.8061 91.6224 59.5815C91.9588 59.357 92.352 59.2328 92.7563 59.2232C92.8789 59.2226 93.0009 59.2418 93.1174 59.2803V60.8466C93.0277 60.8257 92.9367 60.8109 92.845 60.8022H92.5219C92.2886 60.7842 92.0544 60.8239 91.8401 60.9179C91.6258 61.012 91.4378 61.1573 91.2929 61.3413C91.0145 61.7633 90.877 62.2629 90.9001 62.7681V65.5267H89.2911V59.3564Z" fill="#414042"/>
<path d="M94.8088 62.8062C94.7968 63.2336 94.9409 63.6507 95.2142 63.9794C95.3561 64.1124 95.5238 64.2148 95.7068 64.2802C95.8899 64.3457 96.0845 64.3728 96.2785 64.3598C96.5798 64.3646 96.8756 64.2784 97.1273 64.1125C97.3417 63.9954 97.5028 63.8001 97.5771 63.5672H99.0278C98.8759 64.1852 98.5113 64.7299 97.9981 65.1056C97.4849 65.4813 96.8559 65.6641 96.2214 65.6218C95.7883 65.6289 95.3579 65.5513 94.9545 65.3935C94.5849 65.2484 94.2533 65.0207 93.9852 64.7276C93.7062 64.4321 93.4906 64.0824 93.3517 63.7003C93.2073 63.2932 93.1344 62.8641 93.1363 62.432C93.1345 61.9994 93.2096 61.57 93.358 61.1637C93.4983 60.7822 93.7137 60.4328 93.9915 60.1364C94.2633 59.8429 94.5935 59.6096 94.9608 59.4515C95.3621 59.2851 95.7934 59.203 96.2278 59.2105C96.6648 59.2018 97.0982 59.2929 97.4948 59.4769C97.8507 59.6468 98.1628 59.8963 98.407 60.2061C98.6569 60.5238 98.8459 60.885 98.9645 61.2715C99.0926 61.682 99.1566 62.1098 99.1545 62.5398C99.1545 62.5715 99.1545 62.6223 99.1545 62.6857V62.8062H94.8088ZM97.4821 61.7408C97.4415 61.3793 97.2962 61.0377 97.064 60.7579C96.9453 60.6477 96.8054 60.5629 96.653 60.5084C96.5006 60.4539 96.3387 60.4309 96.1771 60.4408C95.9592 60.4361 95.7429 60.4794 95.5436 60.5676C95.3796 60.6477 95.2348 60.7624 95.1192 60.9037C95.0174 61.0275 94.94 61.1696 94.8911 61.3223C94.8437 61.4571 94.8159 61.598 94.8088 61.7408H97.4821Z" fill="#414042"/>
<path d="M99.9211 61.2399C99.9297 60.9 100.026 60.568 100.2 60.276C100.357 60.0171 100.575 59.7997 100.833 59.6418C101.106 59.4802 101.404 59.3645 101.714 59.2994C102.047 59.2296 102.387 59.1955 102.727 59.1979C103.048 59.1979 103.367 59.2212 103.684 59.2677C103.974 59.312 104.256 59.3996 104.52 59.5277C104.774 59.6507 104.992 59.8361 105.154 60.0667C105.313 60.3278 105.392 60.6298 105.382 60.9355V64.1063C105.379 64.3821 105.398 64.6578 105.439 64.9307C105.455 65.1183 105.507 65.3012 105.591 65.4697H103.925C103.861 65.279 103.823 65.0807 103.811 64.8799C103.561 65.1401 103.253 65.3359 102.911 65.4507C102.551 65.5768 102.171 65.639 101.79 65.6346C101.261 65.6588 100.74 65.4948 100.32 65.1716C100.126 65.0025 99.9741 64.791 99.8752 64.5534C99.7763 64.3159 99.7335 64.0587 99.75 63.8019C99.7419 63.5113 99.8004 63.2228 99.9211 62.9584C100.023 62.7435 100.178 62.558 100.371 62.4194C100.562 62.2797 100.777 62.1745 101.004 62.1087C101.261 62.0328 101.524 61.9777 101.79 61.9438C101.948 61.9438 102.126 61.8931 102.322 61.874C102.69 61.8384 103.054 61.7618 103.405 61.6458C103.51 61.6107 103.599 61.5418 103.66 61.4499C103.721 61.358 103.75 61.2484 103.741 61.1384C103.751 61.0178 103.731 60.8966 103.682 60.7858C103.634 60.675 103.558 60.5782 103.462 60.5043C103.217 60.3825 102.944 60.3257 102.67 60.3394C102.399 60.3244 102.131 60.4027 101.91 60.5614C101.809 60.6489 101.727 60.7568 101.67 60.8781C101.614 60.9994 101.583 61.1313 101.581 61.2653L99.9211 61.2399ZM103.722 62.5082C103.614 62.5933 103.488 62.6539 103.355 62.6858C103.203 62.7238 103 62.7619 102.721 62.8062L102.328 62.8633C102.069 62.9045 101.822 63.0043 101.606 63.155C101.514 63.2305 101.442 63.3283 101.397 63.4393C101.353 63.5502 101.338 63.6706 101.353 63.7892C101.332 63.9099 101.347 64.0341 101.395 64.1466C101.444 64.2591 101.523 64.3553 101.625 64.4233C101.849 64.5482 102.104 64.6075 102.36 64.5946C102.612 64.6058 102.862 64.5535 103.089 64.4424C103.259 64.3565 103.4 64.2218 103.494 64.0555C103.575 63.9165 103.631 63.764 103.659 63.6053C103.683 63.4671 103.696 63.3271 103.697 63.1867L103.722 62.5082Z" fill="#414042"/>
<path d="M106.522 59.3564H108.087V60.2125H108.125C108.312 59.8893 108.587 59.6256 108.917 59.4516C109.237 59.2812 109.593 59.192 109.956 59.1916C110.319 59.1798 110.68 59.2402 111.02 59.3691C111.286 59.4737 111.52 59.6465 111.698 59.8701C111.868 60.1049 111.986 60.3728 112.046 60.6565C112.114 61.0052 112.146 61.3601 112.141 61.7155V65.476H110.5V62.0199C110.528 61.6256 110.443 61.2317 110.253 60.8847C110.162 60.7578 110.039 60.657 109.897 60.5925C109.755 60.528 109.598 60.5019 109.443 60.5169C109.259 60.501 109.074 60.5302 108.904 60.602C108.734 60.6739 108.584 60.7861 108.467 60.9291C108.235 61.3348 108.131 61.8013 108.169 62.2672V65.476H106.522V59.3564Z" fill="#414042"/>
<path d="M122.074 59.8637C122.011 59.4428 121.783 59.0643 121.441 58.8111C121.099 58.5334 120.671 58.3832 120.231 58.3862C119.877 58.379 119.526 58.4596 119.211 58.6208C118.928 58.7714 118.687 58.9892 118.508 59.255C118.324 59.5383 118.191 59.8516 118.115 60.1808C118.027 60.5398 117.985 60.9083 117.988 61.2779C117.984 61.6349 118.027 61.991 118.115 62.3369C118.192 62.6611 118.327 62.9684 118.514 63.2438C118.689 63.5132 118.931 63.7319 119.217 63.8779C119.531 64.0372 119.879 64.1156 120.231 64.1062C120.466 64.1147 120.701 64.0734 120.919 63.9849C121.138 63.8964 121.335 63.7627 121.498 63.5925C121.839 63.2106 122.046 62.7272 122.087 62.2164H123.848C123.809 62.7069 123.686 63.1871 123.487 63.6369C123.116 64.4637 122.433 65.1092 121.587 65.4316C121.14 65.5953 120.668 65.6769 120.193 65.6726C119.61 65.6795 119.032 65.5651 118.495 65.3365C118.012 65.1157 117.58 64.7959 117.228 64.3979C116.873 63.9867 116.6 63.5109 116.424 62.9964C116.236 62.443 116.142 61.8622 116.145 61.2779C116.142 60.6831 116.236 60.0919 116.424 59.5276C116.6 59.0055 116.873 58.5214 117.228 58.1008C117.577 57.6973 118.009 57.3748 118.495 57.1559C119.032 56.9273 119.61 56.8128 120.193 56.8198C120.634 56.815 121.073 56.8836 121.492 57.0228C121.891 57.1486 122.263 57.3487 122.588 57.6125C122.912 57.8763 123.181 58.2017 123.379 58.5701C123.585 58.9655 123.716 59.3955 123.766 59.8384L122.074 59.8637Z" fill="#414042"/>
<path d="M124.767 61.2399C124.775 60.9 124.871 60.568 125.045 60.276C125.203 60.0171 125.42 59.7997 125.679 59.6418C125.952 59.4813 126.25 59.3657 126.56 59.2994C126.893 59.2296 127.233 59.1955 127.573 59.1979C127.893 59.1979 128.213 59.2212 128.53 59.2677C128.82 59.312 129.102 59.3996 129.366 59.5277C129.619 59.6507 129.837 59.8361 129.999 60.0667C130.159 60.3278 130.238 60.6298 130.227 60.9355V64.1063C130.225 64.3821 130.244 64.6578 130.284 64.9307C130.301 65.1183 130.352 65.3012 130.437 65.4697H128.77C128.707 65.279 128.668 65.0807 128.656 64.8799C128.407 65.1401 128.098 65.3359 127.757 65.4507C127.397 65.5768 127.017 65.639 126.636 65.6346C126.106 65.6588 125.586 65.4948 125.166 65.1716C124.972 65.0025 124.82 64.791 124.721 64.5534C124.622 64.3159 124.579 64.0587 124.596 63.8019C124.588 63.5113 124.646 63.2228 124.767 62.9584C124.869 62.7435 125.023 62.558 125.217 62.4194C125.408 62.2797 125.622 62.1745 125.85 62.1087C126.107 62.0328 126.37 61.9777 126.636 61.9438C126.794 61.9438 126.971 61.8931 127.168 61.874C127.536 61.8391 127.9 61.7625 128.251 61.6458C128.355 61.6107 128.445 61.5418 128.506 61.4499C128.567 61.358 128.595 61.2484 128.587 61.1384C128.597 61.0178 128.577 60.8966 128.528 60.7858C128.479 60.675 128.404 60.5782 128.308 60.5043C128.062 60.3825 127.79 60.3257 127.516 60.3394C127.245 60.3244 126.977 60.4027 126.756 60.5614C126.655 60.6489 126.573 60.7568 126.516 60.8781C126.459 60.9994 126.429 61.1313 126.426 61.2653L124.767 61.2399ZM128.568 62.5082C128.459 62.5933 128.334 62.6539 128.2 62.6858C128.048 62.7238 127.845 62.7619 127.567 62.8062L127.174 62.8633C126.914 62.9045 126.667 63.0043 126.452 63.155C126.361 63.2316 126.29 63.3296 126.246 63.4403C126.201 63.5509 126.185 63.6708 126.198 63.7892C126.182 63.9097 126.199 64.0323 126.247 64.1439C126.295 64.2556 126.372 64.3522 126.471 64.4233C126.695 64.5473 126.95 64.6065 127.206 64.5946C127.459 64.605 127.712 64.5527 127.941 64.4424C128.109 64.353 128.249 64.2192 128.346 64.0555C128.426 63.9163 128.479 63.7637 128.504 63.6053C128.529 63.4671 128.542 63.3271 128.542 63.1867L128.568 62.5082Z" fill="#414042"/>
<path d="M131.387 59.3564H132.952V60.2125H133.002C133.189 59.8893 133.464 59.6256 133.794 59.4516C134.114 59.2812 134.471 59.192 134.833 59.1916C135.196 59.1798 135.558 59.2402 135.897 59.3691C136.163 59.4737 136.397 59.6465 136.575 59.8701C136.747 60.1035 136.866 60.3719 136.924 60.6565C136.992 61.0052 137.023 61.3601 137.019 61.7155V65.476H135.378V62.0199C135.406 61.6256 135.32 61.2317 135.131 60.8847C135.04 60.7573 134.917 60.6562 134.775 60.5916C134.632 60.527 134.475 60.5013 134.32 60.5169C134.137 60.5009 133.953 60.5302 133.784 60.6021C133.615 60.6739 133.466 60.7862 133.351 60.9291C133.113 61.3329 133.007 61.8004 133.047 62.2672V65.476H131.399L131.387 59.3564Z" fill="#414042"/>
<path d="M138.07 61.2399C138.079 60.9 138.175 60.568 138.349 60.276C138.506 60.0171 138.724 59.7997 138.982 59.6418C139.255 59.4802 139.553 59.3645 139.863 59.2994C140.196 59.2296 140.536 59.1955 140.876 59.1979C141.197 59.1979 141.516 59.2212 141.833 59.2677C142.123 59.312 142.405 59.3996 142.669 59.5277C142.923 59.6507 143.141 59.8361 143.303 60.0667C143.462 60.3278 143.541 60.6298 143.531 60.9355V64.1063C143.528 64.3821 143.547 64.6578 143.588 64.9307C143.604 65.1183 143.656 65.3012 143.74 65.4697H142.061C141.997 65.279 141.959 65.0807 141.947 64.8799C141.698 65.1401 141.389 65.3359 141.048 65.4507C140.687 65.5768 140.308 65.639 139.926 65.6346C139.397 65.6588 138.876 65.4948 138.457 65.1716C138.263 65.0025 138.11 64.791 138.012 64.5534C137.913 64.3159 137.87 64.0587 137.886 63.8019C137.878 63.5113 137.937 63.2228 138.057 62.9584C138.159 62.7435 138.314 62.558 138.507 62.4194C138.699 62.2797 138.913 62.1745 139.141 62.1087C139.398 62.0328 139.66 61.9777 139.926 61.9438C140.085 61.9438 140.262 61.8931 140.458 61.874C140.827 61.8384 141.19 61.7618 141.542 61.6458C141.646 61.6107 141.736 61.5418 141.797 61.4499C141.857 61.358 141.886 61.2484 141.877 61.1384C141.888 61.0178 141.868 60.8966 141.819 60.7858C141.77 60.675 141.694 60.5782 141.599 60.5043C141.353 60.3825 141.08 60.3257 140.807 60.3394C140.536 60.3244 140.267 60.4027 140.047 60.5614C139.945 60.6489 139.864 60.7568 139.807 60.8781C139.75 60.9994 139.719 61.1313 139.717 61.2653L138.07 61.2399ZM141.871 62.5082C141.763 62.5933 141.637 62.6539 141.504 62.6858C141.352 62.7238 141.149 62.7619 140.87 62.8062L140.477 62.8633C140.218 62.9045 139.971 63.0043 139.755 63.155C139.664 63.2316 139.593 63.3296 139.549 63.4403C139.505 63.5509 139.489 63.6708 139.502 63.7892C139.486 63.9097 139.503 64.0323 139.55 64.1439C139.598 64.2556 139.676 64.3522 139.774 64.4233C139.999 64.5473 140.253 64.6065 140.509 64.5946C140.761 64.6058 141.011 64.5535 141.238 64.4424C141.408 64.3548 141.551 64.2207 141.649 64.0555C141.729 63.9163 141.783 63.7637 141.808 63.6053C141.832 63.4671 141.845 63.3271 141.846 63.1867L141.871 62.5082Z" fill="#414042"/>
<path d="M148.954 64.7086C148.785 65.0195 148.524 65.27 148.206 65.4252C147.872 65.5828 147.505 65.6609 147.135 65.6535C146.745 65.663 146.358 65.5773 146.009 65.4039C145.659 65.2304 145.356 64.9744 145.127 64.6579C144.894 64.3432 144.72 63.9887 144.614 63.6115C144.503 63.2088 144.448 62.7927 144.449 62.3749C144.449 61.9718 144.504 61.5705 144.614 61.1827C144.724 60.8159 144.895 60.4706 145.121 60.1618C145.343 59.8648 145.632 59.6238 145.963 59.4579C146.318 59.2835 146.709 59.1965 147.104 59.2042C147.459 59.205 147.81 59.2852 148.13 59.4388C148.439 59.589 148.698 59.8244 148.878 60.1174V57.0417H150.525V65.4886H148.96L148.954 64.7086ZM148.859 61.6647C148.813 61.4417 148.732 61.2276 148.618 61.0305C148.512 60.8528 148.361 60.7062 148.181 60.6057C147.975 60.4998 147.747 60.4474 147.516 60.4535C147.283 60.4475 147.052 60.4998 146.844 60.6057C146.659 60.7081 146.504 60.8567 146.394 61.0369C146.276 61.2323 146.192 61.4469 146.147 61.671C146.096 61.9149 146.07 62.1637 146.071 62.413C146.07 62.6543 146.098 62.8948 146.154 63.1296C146.213 63.3519 146.303 63.5652 146.42 63.7637C146.535 63.9451 146.691 64.097 146.876 64.2076C147.066 64.3243 147.286 64.3837 147.509 64.3789C147.742 64.3861 147.972 64.3291 148.174 64.214C148.359 64.1108 148.512 63.9596 148.618 63.7764C148.734 63.5806 148.816 63.366 148.859 63.1423C148.903 62.8954 148.924 62.6448 148.922 62.394C148.921 62.1444 148.893 61.8957 148.84 61.652L148.859 61.6647Z" fill="#414042"/>
<path d="M153.337 58.4115H151.69V57.0291H153.337V58.4115ZM151.69 59.3564H153.337V65.4759H151.69V59.3564Z" fill="#414042"/>
<path d="M154.446 61.2399C154.458 60.9005 154.553 60.5692 154.725 60.276C154.882 60.0171 155.1 59.7997 155.358 59.6419C155.631 59.4802 155.928 59.3645 156.239 59.2994C156.572 59.2293 156.912 59.1952 157.252 59.198C157.572 59.1984 157.892 59.2217 158.209 59.2677C158.497 59.311 158.777 59.3987 159.039 59.5277C159.295 59.6469 159.514 59.8332 159.672 60.0667C159.836 60.3261 159.918 60.6289 159.907 60.9355V64.1063C159.906 64.3819 159.923 64.6573 159.957 64.9307C159.975 65.1188 160.029 65.3018 160.116 65.4697H158.443C158.38 65.279 158.341 65.0807 158.329 64.88C158.081 65.1415 157.772 65.3376 157.43 65.4507C157.072 65.5768 156.694 65.6391 156.315 65.6346C155.785 65.66 155.264 65.4959 154.845 65.1717C154.651 65.0026 154.499 64.791 154.4 64.5535C154.301 64.3159 154.258 64.0587 154.275 63.8019C154.268 63.5121 154.324 63.2243 154.44 62.9585C154.544 62.7431 154.701 62.5576 154.896 62.4194C155.088 62.2804 155.302 62.1753 155.529 62.1087C155.788 62.0323 156.053 61.9771 156.321 61.9438C156.473 61.9438 156.651 61.8931 156.853 61.8741C157.22 61.8393 157.581 61.7627 157.93 61.6458C158.035 61.6108 158.124 61.5418 158.185 61.4499C158.246 61.358 158.274 61.2484 158.266 61.1385C158.277 61.0177 158.258 60.8961 158.209 60.7851C158.16 60.6741 158.084 60.5774 157.987 60.5043C157.744 60.3816 157.473 60.3248 157.202 60.3394C156.928 60.3245 156.658 60.4028 156.435 60.5614C156.336 60.6505 156.256 60.7588 156.201 60.8799C156.145 61.001 156.115 61.1321 156.112 61.2653L154.446 61.2399ZM158.247 62.5082C158.14 62.5946 158.014 62.6553 157.88 62.6858C157.734 62.7238 157.531 62.7619 157.246 62.8063L156.853 62.8634C156.596 62.9057 156.351 63.0054 156.137 63.1551C156.045 63.2305 155.973 63.3284 155.929 63.4393C155.884 63.5503 155.869 63.6707 155.884 63.7892C155.863 63.91 155.878 64.0341 155.926 64.1466C155.975 64.2592 156.055 64.3553 156.156 64.4234C156.38 64.5489 156.635 64.6083 156.891 64.5946C157.143 64.6051 157.393 64.5528 157.62 64.4424C157.789 64.3547 157.93 64.2205 158.025 64.0556C158.104 63.9153 158.16 63.7633 158.19 63.6053C158.209 63.4666 158.22 63.3268 158.222 63.1868L158.247 62.5082Z" fill="#414042"/>
<path d="M161.053 59.3564H162.618V60.2125C162.809 59.8922 163.082 59.6293 163.41 59.4516C163.73 59.2819 164.087 59.1927 164.449 59.1916C164.812 59.1798 165.174 59.2402 165.513 59.3691C165.779 59.4737 166.013 59.6465 166.191 59.8701C166.366 60.1021 166.485 60.3711 166.539 60.6565C166.613 61.0045 166.647 61.3598 166.641 61.7155V65.476H164.994V62.0199C165.02 61.6265 164.937 61.2335 164.753 60.8847C164.661 60.7588 164.538 60.6587 164.396 60.5943C164.254 60.5298 164.097 60.5032 163.942 60.5169C163.758 60.501 163.573 60.5302 163.403 60.602C163.233 60.6739 163.083 60.7861 162.966 60.9291C162.729 61.3329 162.623 61.8004 162.662 62.2672V65.476H161.022L161.053 59.3564Z" fill="#414042"/>
<path d="M172.323 62.673C172.307 62.8972 172.346 63.1218 172.436 63.3275C172.527 63.5331 172.666 63.7133 172.843 63.8526C173.227 64.1188 173.687 64.2524 174.154 64.233C174.334 64.234 174.515 64.2192 174.692 64.1887C174.874 64.1569 175.051 64.1014 175.218 64.0238C175.376 63.948 175.513 63.8348 175.617 63.694C175.723 63.5441 175.776 63.3636 175.769 63.1804C175.775 63.0071 175.721 62.8373 175.617 62.6984C175.505 62.5629 175.367 62.4508 175.212 62.3686C175.033 62.2763 174.847 62.1999 174.654 62.1403C174.452 62.0769 174.186 62.0072 173.844 61.9247L173.311 61.7852C172.984 61.6967 172.663 61.5887 172.348 61.4618C172.075 61.3561 171.819 61.2108 171.588 61.0306C171.359 60.85 171.173 60.6203 171.044 60.3584C170.902 60.0527 170.833 59.7186 170.841 59.3818C170.834 58.9961 170.924 58.6148 171.101 58.272C171.27 57.9511 171.513 57.675 171.81 57.4667C172.111 57.2498 172.448 57.0868 172.805 56.9847C173.173 56.8779 173.555 56.8245 173.939 56.8262C174.366 56.8241 174.791 56.8752 175.206 56.9784C175.584 57.0718 175.941 57.2376 176.257 57.4667C176.566 57.6862 176.816 57.9779 176.986 58.3164C177.171 58.6993 177.263 59.1212 177.252 59.5467H175.491C175.499 59.3552 175.46 59.1645 175.379 58.9911C175.297 58.8177 175.175 58.6667 175.022 58.5511C174.669 58.3468 174.264 58.2499 173.856 58.272C173.546 58.2626 173.24 58.3441 172.976 58.5067C172.855 58.5831 172.757 58.6903 172.691 58.8174C172.625 58.9444 172.594 59.0867 172.602 59.2296C172.595 59.3671 172.628 59.5037 172.697 59.6228C172.779 59.7375 172.89 59.8275 173.02 59.8828C173.226 59.9749 173.437 60.0533 173.653 60.1174C173.907 60.1935 174.329 60.3077 174.92 60.4599C174.983 60.4683 175.045 60.4832 175.104 60.5042C175.127 60.5101 175.151 60.5101 175.174 60.5042C175.453 60.574 175.706 60.6564 175.94 60.7389C176.198 60.8427 176.443 60.9768 176.669 61.1384C176.934 61.3263 177.151 61.574 177.302 61.8613C177.482 62.1961 177.572 62.5721 177.562 62.9521C177.572 63.3265 177.496 63.6982 177.339 64.0381C177.182 64.3781 176.948 64.677 176.656 64.9116C175.926 65.4531 175.029 65.7202 174.122 65.6662C173.671 65.6694 173.221 65.6097 172.786 65.4887C172.381 65.375 172.001 65.188 171.664 64.937C171.334 64.6876 171.067 64.3639 170.885 63.9921C170.689 63.5761 170.591 63.1203 170.6 62.6604L172.323 62.673Z" fill="#414042"/>
<path d="M178.975 60.0731C179.589 59.5057 180.394 59.1907 181.23 59.1907C182.066 59.1907 182.871 59.5057 183.485 60.0731C183.772 60.3913 183.992 60.7629 184.135 61.1666C184.277 61.5703 184.338 61.9982 184.315 62.4258C184.336 62.8512 184.273 63.2766 184.128 63.6773C183.983 64.0779 183.761 64.4457 183.473 64.7595C182.858 65.3268 182.053 65.6418 181.217 65.6418C180.382 65.6418 179.577 65.3268 178.962 64.7595C178.674 64.4457 178.452 64.0779 178.307 63.6773C178.162 63.2766 178.099 62.8512 178.12 62.4258C178.1 61.9965 178.165 61.5676 178.312 61.1638C178.459 60.76 178.684 60.3893 178.975 60.0731ZM179.849 63.1551C179.895 63.3791 179.978 63.5936 180.096 63.7892C180.201 63.9754 180.357 64.1273 180.546 64.2268C180.754 64.3397 180.987 64.3965 181.224 64.3916C181.464 64.3982 181.703 64.3413 181.914 64.2268C182.103 64.1273 182.259 63.9754 182.364 63.7892C182.482 63.5936 182.566 63.3791 182.611 63.1551C182.663 62.9155 182.689 62.6709 182.687 62.4258C182.688 62.1765 182.663 61.9277 182.611 61.6838C182.566 61.4597 182.483 61.2451 182.364 61.0497C182.256 60.8662 182.101 60.7151 181.914 60.6121C181.702 60.4998 181.464 60.4451 181.224 60.4536C180.988 60.4465 180.754 60.5011 180.546 60.6121C180.36 60.7151 180.204 60.8662 180.096 61.0497C179.978 61.2451 179.894 61.4597 179.849 61.6838C179.797 61.9277 179.772 62.1765 179.773 62.4258C179.782 62.6721 179.818 62.9167 179.881 63.1551H179.849Z" fill="#414042"/>
<path d="M189.383 61.5379C189.38 61.3804 189.344 61.2254 189.277 61.0832C189.209 60.9409 189.113 60.8145 188.993 60.7126C188.873 60.6106 188.733 60.5353 188.582 60.4918C188.431 60.4482 188.272 60.4373 188.116 60.4598C187.892 60.4561 187.672 60.5178 187.483 60.6374C187.298 60.7511 187.145 60.9105 187.039 61.1003C186.929 61.2984 186.85 61.5123 186.805 61.7344C186.755 61.9657 186.729 62.2017 186.729 62.4383C186.728 62.673 186.754 62.9069 186.805 63.1359C186.848 63.3576 186.925 63.5715 187.033 63.7701C187.138 63.9505 187.284 64.1044 187.457 64.2203C187.647 64.3383 187.867 64.3978 188.091 64.3915C188.255 64.399 188.418 64.3731 188.572 64.3153C188.726 64.2576 188.866 64.1691 188.984 64.0554C189.224 63.8106 189.372 63.4901 189.402 63.1486H190.992C190.934 63.864 190.603 64.5294 190.067 65.0067C189.511 65.4481 188.813 65.6734 188.104 65.6408C187.685 65.644 187.27 65.5665 186.881 65.4125C186.519 65.2713 186.191 65.0552 185.918 64.7784C185.637 64.4966 185.421 64.1568 185.284 63.7827C185.135 63.377 185.062 62.9469 185.069 62.5144C185.066 62.0668 185.134 61.6215 185.272 61.1954C185.397 60.8059 185.6 60.4457 185.867 60.1364C186.134 59.8339 186.465 59.5954 186.837 59.4388C187.239 59.2767 187.67 59.1948 188.104 59.1978C188.798 59.1804 189.479 59.392 190.042 59.8003C190.32 59.9981 190.549 60.2582 190.709 60.5597C190.87 60.8613 190.958 61.1962 190.967 61.5379H189.383Z" fill="#414042"/>
<path d="M195.896 61.5379C195.889 61.3875 195.851 61.2401 195.785 61.1047C195.72 60.9692 195.627 60.8486 195.513 60.7501C195.399 60.6516 195.267 60.5774 195.123 60.5318C194.98 60.4863 194.829 60.4704 194.679 60.4852C194.455 60.4826 194.236 60.5443 194.046 60.6628C193.863 60.7774 193.713 60.9367 193.609 61.1257C193.499 61.3248 193.418 61.5383 193.368 61.7599C193.318 61.9911 193.292 62.2271 193.292 62.4638C193.291 62.6984 193.317 62.9323 193.368 63.1613C193.414 63.3834 193.493 63.5972 193.602 63.7955C193.703 63.9776 193.846 64.1322 194.02 64.2457C194.211 64.3617 194.431 64.4211 194.654 64.4169C194.818 64.4245 194.981 64.3986 195.135 64.3408C195.289 64.283 195.429 64.1946 195.547 64.0808C195.782 63.8329 195.929 63.5141 195.965 63.174H197.549C197.493 63.8887 197.164 64.5542 196.63 65.0321C196.074 65.4736 195.376 65.6988 194.667 65.6662C194.248 65.6708 193.833 65.5932 193.444 65.4379C193.081 65.2953 192.751 65.0795 192.475 64.8038C192.198 64.5187 191.982 64.1799 191.841 63.8082C191.696 63.4013 191.626 62.9717 191.632 62.5399C191.626 62.092 191.694 61.6461 191.835 61.2208C191.958 60.8302 192.16 60.4695 192.43 60.1618C192.693 59.8581 193.023 59.6193 193.393 59.4642C193.796 59.3032 194.226 59.2214 194.66 59.2233C195.357 59.2044 196.041 59.4161 196.605 59.8257C196.872 60.0269 197.089 60.2862 197.24 60.584C197.392 60.8818 197.473 61.2102 197.479 61.5442L195.896 61.5379Z" fill="#414042"/>
<path d="M199.703 62.8062C199.691 63.2336 199.835 63.6507 200.108 63.9793C200.251 64.1129 200.42 64.2155 200.604 64.281C200.788 64.3464 200.984 64.3733 201.179 64.3598C201.478 64.3644 201.772 64.2782 202.021 64.1125C202.236 63.9936 202.398 63.7992 202.478 63.5671H203.954C203.786 64.1864 203.419 64.7327 202.908 65.1208C202.39 65.4679 201.776 65.6432 201.154 65.6218C200.72 65.6279 200.29 65.5504 199.887 65.3935C199.517 65.2484 199.185 65.0207 198.917 64.7276C198.636 64.434 198.42 64.0838 198.284 63.7003C198.139 63.2932 198.067 62.8641 198.068 62.432C198.065 61.9998 198.137 61.5704 198.284 61.1637C198.426 60.7834 198.642 60.4345 198.917 60.1364C199.191 59.8427 199.524 59.6095 199.893 59.4515C200.294 59.2851 200.726 59.203 201.16 59.2105C201.597 59.2009 202.031 59.292 202.427 59.4769C202.785 59.6465 203.099 59.896 203.345 60.2061C203.593 60.5242 203.78 60.8854 203.897 61.2715C204.025 61.682 204.089 62.1098 204.087 62.5398C204.089 62.5884 204.089 62.6371 204.087 62.6857V62.8062H199.703ZM202.383 61.7408C202.34 61.3787 202.193 61.0369 201.958 60.7579C201.84 60.6471 201.7 60.5618 201.547 60.5073C201.395 60.4528 201.233 60.4301 201.071 60.4408C200.853 60.4344 200.637 60.4778 200.438 60.5676C200.272 60.6456 200.127 60.7606 200.013 60.9037C199.911 61.0285 199.832 61.1701 199.779 61.3223C199.737 61.4586 199.71 61.5989 199.697 61.7408H202.383Z" fill="#414042"/>
<path d="M204.885 59.3565H206.45V60.4916C206.601 60.11 206.867 59.7845 207.21 59.5594C207.546 59.3227 207.946 59.1943 208.356 59.1916C208.479 59.191 208.601 59.2102 208.717 59.2487V60.815C208.628 60.7936 208.537 60.7788 208.445 60.7706H208.128C207.889 60.7467 207.647 60.7835 207.426 60.8777C207.204 60.9719 207.01 61.1205 206.861 61.3097C206.585 61.7325 206.45 62.232 206.475 62.7365V65.4951H204.828L204.885 59.3565Z" fill="#414042"/>
<path d="M214.818 57.0291H216.68L219.791 65.4759H217.89L217.257 63.5735H214.165L213.532 65.4759H211.689L214.818 57.0291ZM214.641 62.2101H216.782L215.743 59.1091L214.641 62.2101Z" fill="#414042"/>
<path d="M221.476 63.4911C221.47 63.6409 221.501 63.7898 221.566 63.9247C221.632 64.0596 221.729 64.1764 221.85 64.2648C222.113 64.4433 222.426 64.5323 222.743 64.5184C223.005 64.524 223.263 64.4583 223.491 64.3282C223.595 64.271 223.682 64.1852 223.74 64.0809C223.799 63.9765 223.826 63.8578 223.82 63.7384C223.817 63.6157 223.774 63.4973 223.699 63.4004C223.624 63.3035 223.52 63.2331 223.402 63.1994C222.931 63.021 222.446 62.8831 221.951 62.7872C221.702 62.7367 221.456 62.6688 221.216 62.5843C221.011 62.5093 220.815 62.4092 220.634 62.2862C220.448 62.1633 220.298 61.9951 220.196 61.7975C220.094 61.6 220.044 61.3797 220.051 61.1574C220.04 60.8291 220.114 60.5036 220.266 60.2125C220.401 59.9532 220.602 59.7343 220.849 59.5784C221.107 59.43 221.387 59.325 221.679 59.2677C222.002 59.2025 222.331 59.1706 222.661 59.1725C222.985 59.1691 223.308 59.2031 223.624 59.274C223.909 59.3385 224.183 59.4477 224.435 59.5974C224.678 59.7481 224.882 59.9546 225.03 60.1999C225.19 60.4838 225.283 60.8004 225.302 61.1257H223.738C223.736 61.0016 223.706 60.8795 223.648 60.7694C223.591 60.6592 223.509 60.5641 223.408 60.4916C223.164 60.3583 222.888 60.2947 222.61 60.3077C222.393 60.3053 222.178 60.3463 221.977 60.4282C221.891 60.4661 221.819 60.5299 221.771 60.6106C221.724 60.6914 221.702 60.785 221.711 60.8784C221.708 60.9874 221.74 61.0943 221.803 61.1834C221.866 61.2725 221.955 61.339 222.059 61.373C222.402 61.5144 222.758 61.6185 223.123 61.6838C223.339 61.7282 223.491 61.7662 223.573 61.7916C223.825 61.846 224.072 61.9181 224.314 62.0072C224.526 62.0859 224.726 62.1925 224.91 62.3243C225.086 62.4488 225.229 62.6142 225.328 62.8062C225.428 63.0247 225.478 63.2632 225.473 63.5038C225.482 63.8489 225.406 64.1908 225.252 64.4994C225.096 64.7602 224.879 64.9782 224.618 65.1336C224.351 65.3012 224.058 65.4233 223.75 65.495C223.413 65.5674 223.069 65.6035 222.724 65.6028C222.373 65.6041 222.022 65.568 221.679 65.495C221.367 65.4212 221.07 65.297 220.798 65.1272C220.536 64.9547 220.319 64.7221 220.165 64.4487C220.001 64.142 219.912 63.8008 219.905 63.4531L221.476 63.4911Z" fill="#414042"/>
<path d="M227.583 63.4911C227.577 63.6408 227.608 63.7898 227.673 63.9247C227.738 64.0596 227.836 64.1764 227.957 64.2647C228.217 64.4424 228.528 64.5313 228.844 64.5184C229.107 64.5248 229.368 64.4591 229.597 64.3282C229.702 64.2709 229.789 64.1852 229.847 64.0809C229.905 63.9765 229.933 63.8578 229.927 63.7384C229.923 63.6157 229.881 63.4973 229.806 63.4004C229.731 63.3035 229.627 63.233 229.509 63.1994C229.038 63.021 228.552 62.8831 228.058 62.7872C227.808 62.7375 227.563 62.6696 227.323 62.5842C227.115 62.5093 226.918 62.4092 226.734 62.2862C226.558 62.1692 226.415 62.01 226.316 61.8233C226.209 61.6294 226.154 61.4107 226.158 61.1891C226.147 60.8608 226.221 60.5353 226.373 60.2442C226.506 59.9834 226.707 59.7641 226.956 59.6101C227.213 59.4617 227.494 59.3567 227.786 59.2994C228.109 59.2342 228.438 59.2023 228.768 59.2042C229.091 59.2011 229.414 59.2352 229.73 59.3057C230.023 59.3703 230.303 59.4816 230.56 59.6355C230.804 59.7862 231.008 59.9927 231.156 60.2379C231.313 60.523 231.406 60.839 231.428 61.1638H229.863C229.862 61.0396 229.831 60.9176 229.774 60.8074C229.717 60.6973 229.635 60.6021 229.534 60.5296C229.29 60.3964 229.014 60.3328 228.736 60.3457C228.519 60.3434 228.303 60.3843 228.102 60.4662C228.017 60.5042 227.945 60.5679 227.897 60.6487C227.85 60.7294 227.828 60.823 227.836 60.9164C227.834 61.0254 227.866 61.1324 227.929 61.2215C227.992 61.3106 228.081 61.377 228.185 61.4111C228.527 61.5524 228.884 61.6566 229.249 61.7218C229.464 61.7662 229.616 61.8043 229.699 61.8296C229.951 61.8841 230.198 61.9561 230.44 62.0452C230.651 62.1253 230.851 62.2319 231.035 62.3623C231.211 62.4855 231.353 62.6513 231.447 62.8443C231.553 63.0613 231.605 63.3005 231.599 63.5418C231.608 63.8869 231.532 64.2289 231.378 64.5374C231.22 64.7963 231.003 65.0138 230.744 65.1716C230.475 65.3404 230.179 65.4626 229.87 65.5331C229.535 65.6057 229.193 65.6419 228.85 65.6409C228.499 65.6422 228.148 65.606 227.805 65.5331C227.493 65.4604 227.195 65.3361 226.924 65.1652C226.662 64.9928 226.445 64.7601 226.291 64.4867C226.127 64.18 226.038 63.8388 226.031 63.4911H227.583Z" fill="#414042"/>
<path d="M233.094 60.0731C233.709 59.5057 234.514 59.1907 235.35 59.1907C236.185 59.1907 236.991 59.5057 237.605 60.0731C237.893 60.3903 238.116 60.7614 238.261 61.1652C238.405 61.569 238.469 61.9974 238.447 62.4258C238.468 62.8512 238.405 63.2766 238.26 63.6773C238.115 64.0779 237.893 64.4457 237.605 64.7595C236.991 65.3268 236.185 65.6418 235.35 65.6418C234.514 65.6418 233.709 65.3268 233.094 64.7595C232.806 64.4457 232.584 64.0779 232.439 63.6773C232.295 63.2766 232.231 62.8512 232.252 62.4258C232.23 61.9974 232.294 61.569 232.438 61.1652C232.583 60.7614 232.806 60.3903 233.094 60.0731ZM233.969 63.1551C234.014 63.3791 234.098 63.5936 234.216 63.7892C234.32 63.9754 234.477 64.1273 234.665 64.2268C234.873 64.3405 235.107 64.3974 235.343 64.3916C235.584 64.3982 235.822 64.3413 236.034 64.2268C236.221 64.1256 236.377 63.9741 236.484 63.7892C236.599 63.5922 236.682 63.3782 236.731 63.1551C236.777 62.9148 236.801 62.6705 236.8 62.4258C236.8 62.1768 236.777 61.9284 236.731 61.6838C236.683 61.4606 236.599 61.2464 236.484 61.0497C236.373 60.8684 236.218 60.7179 236.034 60.6121C235.821 60.4998 235.583 60.4451 235.343 60.4536C235.107 60.4459 234.874 60.5005 234.665 60.6121C234.479 60.7151 234.324 60.8662 234.216 61.0497C234.097 61.2451 234.014 61.4597 233.969 61.6838C233.917 61.9277 233.891 62.1765 233.893 62.4258C233.885 62.6702 233.904 62.9148 233.95 63.1551H233.969Z" fill="#414042"/>
<path d="M243.458 61.538C243.451 61.3876 243.414 61.2402 243.348 61.1048C243.282 60.9693 243.19 60.8487 243.076 60.7502C242.962 60.6517 242.83 60.5775 242.686 60.5319C242.543 60.4864 242.392 60.4705 242.242 60.4853C242.018 60.4834 241.799 60.545 241.608 60.6629C241.426 60.7774 241.275 60.9368 241.171 61.1258C241.062 61.3249 240.981 61.5383 240.931 61.76C240.88 61.9912 240.855 62.2272 240.855 62.4639C240.854 62.6985 240.88 62.9324 240.931 63.1614C240.976 63.3834 241.055 63.5973 241.165 63.7956C241.269 63.9774 241.414 64.1318 241.589 64.2458C241.779 64.3638 242 64.4233 242.223 64.417C242.387 64.4246 242.551 64.3986 242.704 64.3409C242.858 64.2831 242.998 64.1947 243.116 64.0809C243.354 63.8346 243.501 63.515 243.534 63.1741H245.131C245.073 63.8895 244.741 64.5549 244.206 65.0322C243.649 65.4737 242.952 65.6989 242.242 65.6663C241.824 65.6702 241.408 65.5927 241.019 65.438C240.656 65.2954 240.326 65.0795 240.05 64.8039C239.771 64.5208 239.555 64.1814 239.417 63.8083C239.267 63.4026 239.194 62.9725 239.201 62.54C239.195 62.092 239.263 61.6462 239.404 61.2209C239.527 60.8303 239.729 60.4696 239.999 60.1619C240.263 59.8565 240.595 59.6175 240.969 59.4643C241.371 59.3022 241.802 59.2203 242.236 59.2234C242.93 59.2059 243.611 59.4176 244.174 59.8258C244.443 60.0244 244.664 60.2818 244.818 60.5785C244.973 60.8752 245.058 61.2034 245.067 61.538H243.458Z" fill="#414042"/>
<path d="M247.608 58.4115H245.961V57.0291H247.608V58.4115ZM245.961 59.3564H247.608V65.4759H245.961V59.3564Z" fill="#414042"/>
<path d="M248.716 61.2399C248.731 60.901 248.827 60.5704 248.995 60.276C249.154 60.0183 249.371 59.8012 249.629 59.6419C249.901 59.4802 250.199 59.3645 250.509 59.2994C250.842 59.2293 251.182 59.1952 251.523 59.198C251.843 59.1984 252.162 59.2217 252.479 59.2677C252.768 59.311 253.048 59.3987 253.309 59.5277C253.565 59.6469 253.784 59.8332 253.943 60.0667C254.106 60.3261 254.188 60.6289 254.177 60.9355V64.1063C254.176 64.3819 254.193 64.6573 254.228 64.9307C254.249 65.1183 254.302 65.3007 254.386 65.4697H252.733C252.667 65.2792 252.627 65.0809 252.612 64.88C252.364 65.1415 252.055 65.3376 251.713 65.4507C251.355 65.5768 250.977 65.6391 250.598 65.6346C250.068 65.66 249.547 65.4959 249.128 65.1717C248.934 65.0026 248.782 64.791 248.683 64.5535C248.584 64.3159 248.541 64.0587 248.558 63.8019C248.55 63.5114 248.608 63.2228 248.729 62.9585C248.829 62.7421 248.984 62.5561 249.179 62.4194C249.37 62.2797 249.585 62.1746 249.812 62.1087C250.069 62.0322 250.332 61.9771 250.598 61.9438C250.75 61.9438 250.927 61.8931 251.13 61.8741C251.496 61.8393 251.858 61.7627 252.207 61.6458C252.312 61.6118 252.402 61.543 252.463 61.4509C252.524 61.3587 252.552 61.2486 252.543 61.1385C252.554 61.0177 252.535 60.8961 252.486 60.7851C252.437 60.6741 252.361 60.5774 252.264 60.5043C252.021 60.3816 251.75 60.3248 251.478 60.3394C251.205 60.3255 250.935 60.4037 250.712 60.5614C250.613 60.6505 250.533 60.7588 250.478 60.8799C250.422 61.001 250.392 61.1321 250.389 61.2653L248.716 61.2399ZM252.517 62.5082C252.411 62.5934 252.288 62.654 252.156 62.6858C252.004 62.7238 251.801 62.7619 251.523 62.8063L251.124 62.8634C250.866 62.9057 250.622 63.0054 250.408 63.1551C250.315 63.2305 250.243 63.3284 250.199 63.4393C250.155 63.5503 250.139 63.6707 250.154 63.7892C250.134 63.91 250.148 64.0341 250.197 64.1466C250.245 64.2592 250.325 64.3553 250.427 64.4234C250.651 64.5489 250.905 64.6083 251.162 64.5946C251.413 64.6051 251.664 64.5528 251.89 64.4424C252.059 64.3547 252.2 64.2205 252.296 64.0556C252.377 63.9166 252.433 63.7641 252.46 63.6053C252.469 63.4659 252.469 63.3261 252.46 63.1868L252.517 62.5082Z" fill="#414042"/>
<path d="M257.408 59.3565H258.612V60.4789H257.408V63.5102C257.383 63.7111 257.433 63.914 257.547 64.0809C257.709 64.1951 257.908 64.2448 258.105 64.2204C258.275 64.2227 258.444 64.2078 258.612 64.176V65.4887C258.292 65.5326 257.971 65.5517 257.649 65.5458C257.398 65.5477 257.148 65.5286 256.901 65.4887C256.693 65.4521 256.493 65.3769 256.312 65.2668C256.137 65.1611 255.996 65.0069 255.906 64.8229C255.803 64.5939 255.754 64.3446 255.761 64.0936V60.4789H254.766V59.3565H255.761V57.5238H257.408V59.3565Z" fill="#414042"/>
<path d="M260.968 58.4115H259.327V57.0291H260.968V58.4115ZM259.327 59.3564H260.968V65.4759H259.327V59.3564Z" fill="#414042"/>
<path d="M262.818 60.0731C263.432 59.5057 264.237 59.1907 265.073 59.1907C265.909 59.1907 266.714 59.5057 267.328 60.0731C267.617 60.3903 267.84 60.7614 267.984 61.1652C268.129 61.569 268.192 61.9974 268.171 62.4258C268.192 62.8512 268.128 63.2766 267.984 63.6773C267.839 64.0779 267.616 64.4457 267.328 64.7595C266.714 65.3268 265.909 65.6418 265.073 65.6418C264.237 65.6418 263.432 65.3268 262.818 64.7595C262.53 64.4457 262.307 64.0779 262.163 63.6773C262.018 63.2766 261.954 62.8512 261.975 62.4258C261.954 61.9974 262.017 61.569 262.162 61.1652C262.307 60.7614 262.529 60.3903 262.818 60.0731ZM263.692 63.1551C263.737 63.3791 263.821 63.5936 263.939 63.7892C264.044 63.9754 264.2 64.1273 264.389 64.2268C264.597 64.3397 264.83 64.3965 265.067 64.3916C265.307 64.3982 265.546 64.3413 265.757 64.2268C265.945 64.1256 266.101 63.9741 266.207 63.7892C266.325 63.5936 266.409 63.3791 266.454 63.1551C266.506 62.9155 266.532 62.6709 266.53 62.4258C266.531 62.1765 266.506 61.9277 266.454 61.6838C266.409 61.4597 266.326 61.2451 266.207 61.0497C266.096 60.8684 265.941 60.7179 265.757 60.6121C265.545 60.4998 265.307 60.4451 265.067 60.4536C264.831 60.4465 264.597 60.5011 264.389 60.6121C264.203 60.7151 264.047 60.8662 263.939 61.0497C263.821 61.2451 263.737 61.4597 263.692 61.6838C263.64 61.9277 263.615 62.1765 263.616 62.4258C263.615 62.6709 263.64 62.9155 263.692 63.1551Z" fill="#414042"/>
<path d="M269.121 59.3564H270.686V60.2125H270.724C270.911 59.8893 271.186 59.6256 271.516 59.4516C271.836 59.2812 272.192 59.192 272.555 59.1916C272.918 59.1798 273.279 59.2402 273.619 59.3691C273.885 59.4737 274.119 59.6465 274.297 59.8701C274.467 60.1049 274.585 60.3728 274.645 60.6565C274.713 61.0052 274.745 61.3601 274.74 61.7155V65.476H273.1V62.0199C273.127 61.6256 273.041 61.2317 272.852 60.8847C272.762 60.7573 272.639 60.6562 272.496 60.5916C272.354 60.527 272.197 60.5013 272.042 60.5169C271.866 60.5026 271.689 60.5302 271.526 60.5975C271.363 60.6647 271.219 60.7697 271.104 60.9038C270.867 61.3076 270.761 61.7751 270.8 62.2418V65.4506H269.153L269.121 59.3564Z" fill="#414042"/>
</g>
<defs>
<clipPath id="clip0">
<rect width="275" height="81" fill="white"/>
</clipPath>
</defs>
</svg>
