<?xml version="1.0" encoding="utf-8"?>
<!-- Generator: Adobe Illustrator 25.4.1, SVG Export Plug-In . SVG Version: 6.00 Build 0)  -->
<svg version="1.1" xmlns="http://www.w3.org/2000/svg" xmlns:xlink="http://www.w3.org/1999/xlink" x="0px" y="0px"
	 viewBox="0 0 800 800" style="enable-background:new 0 0 800 800;" xml:space="preserve">
<style type="text/css">
	.st0{display:none;}
	.st1{display:inline;}
	.st2{fill:#FFFFFF;}
	.st3{fill:#F6B856;}
	.st4{fill:#FF0000;}
	.st5{fill:#0350A0;}
	.st6{fill:#160D00;}
	.st7{fill:#C0C0C0;}
	.st8{fill:#4D4D4D;}
	.st9{fill:#424242;}
	.st10{fill:#0E0E0E;}
	.st11{fill:#EC1C24;}
	.st12{fill:#005AA9;}
	.st13{fill:#EC2224;}
</style>
<g id="Layer_1" class="st0">
</g>
<g id="Layer_2">
	<circle class="st2" cx="402" cy="403" r="375"/>
	<g>
		<path class="st11" d="M399.69,17C186.6,17,13.84,189.74,13.84,402.84c0,213.09,172.75,385.84,385.84,385.84
			s385.84-172.75,385.84-385.84C785.53,189.74,612.78,17,399.69,17 M399.69,753.3c-193.55,0-350.45-156.91-350.45-350.46
			c0-193.55,156.9-350.45,350.45-350.45c193.55,0,350.45,156.9,350.45,350.45C750.14,596.39,593.24,753.3,399.69,753.3"/>
		<path class="st12" d="M399.69,52.08c-193.72,0-350.77,157.04-350.77,350.76c0,193.72,157.04,350.77,350.77,350.77
			c193.72,0,350.77-157.04,350.77-350.77C750.45,209.12,593.41,52.08,399.69,52.08 M399.69,739.29
			c-185.82,0-336.44-150.63-336.44-336.45c0-185.81,150.63-336.45,336.44-336.45s336.45,150.64,336.45,336.45
			C736.14,588.66,585.5,739.29,399.69,739.29"/>
		<path class="st2" d="M399.69,38.05c-201.47,0-364.79,163.32-364.79,364.79c0,201.47,163.32,364.8,364.79,364.8
			s364.8-163.33,364.8-364.8C764.48,201.37,601.16,38.05,399.69,38.05 M399.69,752.75c-193.25,0-349.9-156.66-349.9-349.91
			c0-193.25,156.66-349.91,349.9-349.91c193.25,0,349.91,156.66,349.91,349.91C749.6,596.09,592.93,752.75,399.69,752.75"/>
		<g>
			<path class="st12" d="M126.36,295.34c-0.59-1.41-0.59-2.82-0.01-4.22c0.58-1.41,1.56-2.41,2.98-3c1.4-0.59,2.81-0.6,4.21-0.02
				c1.41,0.57,2.41,1.57,3,2.98c0.59,1.41,0.59,2.81,0.01,4.22c-0.58,1.41-1.57,2.4-2.97,2.99c-1.41,0.59-2.81,0.59-4.22,0.01
				C127.95,297.74,126.95,296.75,126.36,295.34z"/>
			<path class="st12" d="M142.03,335l-1.57,7.57l-19.25-3.99l-0.04,0.19c1.41,1.33,2.68,2.69,3.9,3.98l12.44,14.05l-1.94,9.37
				l-14.83-18.1l-27.21,10.35l1.85-8.94l21.63-7.81l-3.68-4.72L98.6,333.9l1.57-7.57L142.03,335z"/>
			<path class="st12" d="M106.27,397.13c-11.32-0.82-15.8-9.15-15.24-17c0.63-8.66,7.06-15,16.99-14.28
				c10.12,0.73,15.84,7.82,15.17,17.12C122.52,392.14,115.64,397.81,106.27,397.13z M107.64,373.9c-5.94-0.43-10.65,2.22-10.99,6.9
				c-0.32,4.43,3.76,7.84,10.02,8.29c4.8,0.35,10.53-1.4,10.91-6.71C117.97,376.87,112.76,374.27,107.64,373.9z"/>
			<path class="st12" d="M111.77,406.04c4.18-0.15,7.23-0.33,9.94-0.62l0.25,6.72l-5.82,0.53l0.01,0.18
				c4.36,1.37,6.71,4.9,6.84,8.26c0.03,0.76-0.01,1.2-0.13,1.84l-7.28,0.26c0.1-0.7,0.14-1.4,0.1-2.35
				c-0.14-3.67-2.57-6.19-6.14-6.75c-0.7-0.1-1.54-0.13-2.35-0.11l-16.03,0.58l-0.28-7.79L111.77,406.04z"/>
			<path class="st12" d="M106.05,436.67c-5.5,0.95-7.3,5.55-6.61,10.52c0.49,3.58,1.41,6.01,2.55,8.29l-5.13,1.86
				c-1.49-2.48-2.81-6.01-3.42-10.41c-1.37-9.92,3.92-16.6,13.27-17.89c8.48-1.17,17.17,2.88,18.52,12.67
				c1.37,9.93-6.34,14.32-13.06,15.25c-1.43,0.2-2.59,0.23-3.3,0.2L106.05,436.67z M113.3,449.36c2.84-0.32,7.31-2.22,6.6-7.38
				c-0.65-4.77-5.27-6.18-8.45-6.06L113.3,449.36z"/>
			<path class="st12" d="M111.34,491.27c-2.7,0.7-5.3,1.53-7.04,2.37l-1.79-6.81l3.17-1.42l-0.05-0.18c-2.8-1.17-5.27-3.86-6.3-7.78
				c-1.59-6.01,1.88-10.53,6.43-11.72c7.47-1.96,13.1,3.71,15.93,14.76l0.49-0.13c1.96-0.51,5-2.16,3.62-7.44
				c-0.77-2.94-2.5-5.77-4.31-7.45l4.52-2.77c1.92,1.86,4.23,5.38,5.48,10.11c2.5,9.56-2.84,13.92-9.4,15.64L111.34,491.27z
				 M116.82,481.96c-1.34-5.35-3.78-10.15-8.32-8.96c-2.94,0.77-3.79,3.03-3.16,5.42c0.8,3.07,3.33,4.7,5.67,4.87
				c0.6,0.04,1.15-0.11,1.7-0.25L116.82,481.96z"/>
			<path class="st12" d="M128.29,497.55c3.29-1.33,6.01-2.56,8.43-3.68l2.53,6.29l-4.15,2.08l0.07,0.17
				c2.76,0.39,6.72,2.42,8.64,7.18c2.02,5,0.87,11.47-8.19,15.12l-16.99,6.86l-2.92-7.23l16.17-6.52c4.12-1.66,6.62-4.45,5.03-8.39
				c-1.17-2.88-4.03-4.05-6.51-3.94c-0.69,0-1.62,0.24-2.43,0.57l-16.88,6.8l-2.92-7.23L128.29,497.55z"/>
			<path class="st12" d="M149.93,583.23c-1.74-1.06-4.79-3.92-7.6-8.3c-7.34-11.41-4.66-22.94,6.32-30.02
				c11.84-7.62,24.31-3.95,31.37,7.04c2.78,4.32,3.83,7.94,4,9.72l-6.12,1.97c-0.35-2.18-1.25-5-3.14-7.93
				c-4.7-7.3-12.69-9.63-21.33-4.07c-7.94,5.11-10.01,12.92-4.89,20.87c1.68,2.61,4,5.04,5.87,6.32L149.93,583.23z"/>
			<path class="st12" d="M176.61,605.88c-2.14,1.79-4.14,3.65-5.35,5.16l-4.54-5.39l2.25-2.64l-0.12-0.15
				c-3.03,0.15-6.42-1.23-9.03-4.33c-4-4.75-2.8-10.32,0.79-13.34c5.92-4.98,13.43-2.26,20.73,6.51l0.39-0.33
				c1.55-1.31,3.6-4.1,0.08-8.28c-1.96-2.33-4.73-4.14-7.09-4.89l2.9-4.43c2.54,0.85,6.13,3.05,9.27,6.79
				c6.36,7.57,3.4,13.8-1.79,18.16L176.61,605.88z M177.58,595.12c-3.5-4.26-7.77-7.55-11.36-4.53c-2.33,1.96-2.13,4.36-0.54,6.26
				c2.05,2.42,5.02,2.81,7.21,1.97c0.56-0.22,1-0.59,1.43-0.96L177.58,595.12z"/>
			<path class="st12" d="M194.64,604.32c2.41-2.61,4.33-4.89,6.04-6.94l4.99,4.59l-2.85,3.67l0.14,0.13
				c2.65-0.83,7.1-0.7,10.89,2.78c3.96,3.65,5.7,10-0.91,17.18l-12.41,13.48l-5.75-5.28l11.81-12.83c3.01-3.27,4.07-6.86,0.95-9.73
				c-2.29-2.11-5.37-1.93-7.57-0.77c-0.61,0.29-1.35,0.91-1.94,1.56l-12.33,13.39l-5.73-5.28L194.64,604.32z"/>
			<path class="st12" d="M234.66,655.27c-1.62,2.27-3.1,4.57-3.89,6.34l-5.74-4.09l1.52-3.12l-0.15-0.1
				c-2.9,0.89-6.52,0.41-9.83-1.94c-5.06-3.61-5.29-9.3-2.57-13.12c4.49-6.3,12.44-5.54,21.69,1.13l0.3-0.41
				c1.18-1.66,2.46-4.87-1.98-8.03c-2.48-1.77-5.61-2.83-8.09-2.96l1.7-5.01c2.67,0.19,6.7,1.42,10.67,4.25
				c8.06,5.74,6.74,12.51,2.81,18.03L234.66,655.27z M232.91,644.6c-4.46-3.25-9.41-5.37-12.13-1.55c-1.76,2.48-0.97,4.75,1.05,6.19
				c2.58,1.84,5.57,1.48,7.47,0.11c0.48-0.35,0.81-0.82,1.14-1.29L232.91,644.6z"/>
			<path class="st12" d="M287.8,642.16l-17.18,32.02c-1.5,2.8-3.01,5.87-3.89,7.77l-6.09-3.26l1.97-4.48l-0.12-0.06
				c-3.24,2.15-7.55,2.28-11.46,0.18c-6.54-3.51-8.71-11.8-4.22-20.18c4.84-9.14,13.44-11.5,19.98-7.99
				c3.75,2.01,5.62,4.96,5.77,7.63l0.11,0.06l8.25-15.36L287.8,642.16z M268.16,662.27c0.3-0.56,0.63-1.32,0.82-1.93
				c0.8-2.95-0.21-6.3-3.34-7.98c-4.41-2.37-8.97,0.22-11.67,5.26c-2.7,5.03-2.19,9.97,2.17,12.31c2.79,1.5,6.27,0.92,8.53-1.68
				c0.5-0.53,0.91-1.17,1.3-1.89L268.16,662.27z"/>
			<path class="st12" d="M278.09,686.75l11.81-28.53l7.21,2.98l-11.82,28.53L278.09,686.75z M300.88,653.43
				c-0.88,2.1-3.18,3.21-5.71,2.16c-2.4-0.99-3.26-3.41-2.38-5.52c0.92-2.23,3.26-3.25,5.67-2.25
				C300.92,648.85,301.73,651.18,300.88,653.43z"/>
			<path class="st12" d="M321.92,694.3c-0.83,2.67-1.52,5.3-1.71,7.24l-6.72-2.08l0.47-3.44l-0.18-0.06
				c-2.47,1.76-6.07,2.44-9.94,1.24c-5.93-1.84-7.93-7.17-6.55-11.65c2.29-7.39,10.08-9.16,20.96-5.72l0.15-0.48
				c0.6-1.93,0.81-5.39-4.4-7c-2.91-0.91-6.22-0.94-8.62-0.28l0.05-5.3c2.59-0.66,6.8-0.75,11.47,0.69
				c9.44,2.93,10.32,9.77,8.31,16.25L321.92,694.3z M316.92,684.73c-5.25-1.7-10.62-2.16-12,2.32c-0.91,2.91,0.56,4.82,2.92,5.55
				c3.03,0.94,5.75-0.34,7.14-2.24c0.35-0.49,0.52-1.03,0.69-1.58L316.92,684.73z"/>
			<path class="st12" d="M336.28,683.25c0.61-3.5,1-6.46,1.33-9.1l6.69,1.17l-0.42,4.63l0.19,0.03c1.79-2.13,5.6-4.43,10.66-3.55
				c5.31,0.93,10.21,5.32,8.53,14.95l-3.16,18.05l-7.68-1.34l3-17.18c0.76-4.37-0.29-7.97-4.47-8.7c-3.06-0.53-5.57,1.28-6.78,3.45
				c-0.36,0.59-0.65,1.5-0.81,2.37l-3.12,17.92l-7.69-1.34L336.28,683.25z"/>
			<path class="st12" d="M389.43,703.18c2.48,1.44,6.36,2.68,10.35,2.66c4.95-0.03,7.73-2.4,7.7-5.89c-0.03-3.23-2.19-5.12-7.6-7.05
				c-7.12-2.49-11.65-6.2-11.69-12.35c-0.06-7.04,5.74-12.34,15.07-12.41c4.63-0.03,8,0.96,10.22,2.09l-1.79,6.29
				c-1.59-0.81-4.58-2-8.58-1.96c-4.95,0.03-7.02,2.65-7,5.19c0.02,3.29,2.5,4.8,8.23,6.98c7.44,2.74,11.02,6.46,11.06,12.61
				c0.05,6.91-5.11,12.91-16.08,12.98c-4.57,0.03-9.28-1.2-11.63-2.65L389.43,703.18z"/>
			<path class="st12" d="M454.47,691.11c1.53,11.24-5.7,17.34-13.5,18.4c-8.6,1.17-16.13-3.82-17.46-13.69
				c-1.36-10.05,4.4-17.1,13.63-18.35C446.25,676.23,453.22,681.81,454.47,691.11z M431.46,694.54c0.8,5.91,4.36,9.97,9.01,9.34
				c4.4-0.59,6.89-5.28,6.05-11.51c-0.65-4.77-3.53-10.01-8.81-9.29C432.24,683.82,430.77,689.46,431.46,694.54z"/>
			<path class="st12" d="M489.15,697.62c-1.41,1.15-4.32,2.76-8.07,3.73c-9.33,2.41-16.97-2.03-19.36-11.31
				c-2.33-8.96,2.02-17.48,12.53-20.2c2.76-0.71,5.74-0.83,7.66-0.54l0.12,6.06c-1.39-0.29-3.31-0.39-6.01,0.31
				c-5.77,1.5-8.11,6.62-6.63,12.07c1.58,6.14,6.48,8.6,11.63,7.27c2.58-0.67,4.34-1.71,5.66-2.71L489.15,697.62z"/>
			<path class="st12" d="M519.32,686.74c-1.28,1.29-4.02,3.2-7.64,4.54c-9.02,3.37-17.08-0.25-20.43-9.22
				c-3.24-8.68,0.2-17.61,10.36-21.4c2.67-1,5.62-1.43,7.56-1.33l0.76,6.01c-1.41-0.15-3.34-0.04-5.94,0.93
				c-5.59,2.08-7.38,7.42-5.35,12.69c2.21,5.94,7.34,7.89,12.33,6.02c2.5-0.93,4.13-2.16,5.34-3.28L519.32,686.74z"/>
			<path class="st12" d="M527.5,669.38c2.7,4.89,7.63,5.09,12.1,2.82c3.22-1.63,5.23-3.29,7-5.11l3.43,4.23
				c-1.86,2.22-4.77,4.62-8.73,6.63c-8.93,4.53-16.98,1.71-21.25-6.72c-3.87-7.63-2.88-17.16,5.95-21.64
				c8.93-4.53,15.6,1.33,18.67,7.38c0.66,1.3,1.06,2.38,1.27,3.06L527.5,669.38z M537.14,658.38c-1.24-2.58-4.49-6.19-9.12-3.84
				c-4.3,2.18-4.13,7-2.98,9.97L537.14,658.38z"/>
			<path class="st12" d="M549.79,648.58c-2.28-3.51-3.98-6.04-5.62-8.23l5.64-3.65l3.43,4.73l0.16-0.1
				c-1.06-4.45,0.78-8.28,3.6-10.1c0.64-0.41,1.04-0.6,1.65-0.83l3.96,6.13c-0.66,0.27-1.28,0.59-2.07,1.11
				c-3.09,2-4,5.38-2.66,8.74c0.27,0.65,0.66,1.38,1.11,2.07l8.71,13.48l-6.55,4.23L549.79,648.58z"/>
			<path class="st12" d="M594.92,626.31l5.49,11.4l-5.93,5.45l-18.83-40.73l7.33-6.74l39.13,22.07l-6.21,5.71l-11.04-6.3
				L594.92,626.31z M599.93,613.7l-9.59-5.48c-2.36-1.36-4.85-3.03-6.99-4.42l-0.09,0.08c1.2,2.25,2.71,4.92,3.91,7.25l4.69,9.98
				L599.93,613.7z"/>
			<path class="st12" d="M623.04,605.56c1.93-0.61,5.03-2.39,6.83-4.51c2.21-2.61,2.1-4.72,0.55-6.03c-1.6-1.36-3.19-1.05-6.72,0.95
				c-5.45,3.28-9.56,3.02-12.36,0.64c-4.16-3.53-4.43-9.67,0.21-15.13c2.22-2.61,4.78-4.34,6.74-5.09l3.13,4.74
				c-1.4,0.47-3.82,1.74-5.58,3.82c-1.81,2.12-1.73,4.19-0.28,5.42c1.5,1.28,3.12,0.74,6.78-1.31c5.15-3.03,8.97-3.11,12.49-0.2
				c4.3,3.65,4.55,9.62-0.75,15.85c-2.42,2.85-5.28,4.83-7.72,5.75L623.04,605.56z"/>
			<path class="st12" d="M641.95,582.47c1.87-0.79,4.77-2.86,6.36-5.16c1.95-2.81,1.62-4.89-0.04-6.05c-1.73-1.2-3.28-0.73-6.59,1.6
				c-5.1,3.79-9.23,3.93-12.24,1.84c-4.48-3.11-5.35-9.19-1.26-15.08c1.96-2.81,4.34-4.79,6.22-5.72l3.57,4.41
				c-1.35,0.61-3.63,2.11-5.18,4.35c-1.59,2.29-1.32,4.34,0.25,5.42c1.61,1.12,3.17,0.43,6.62-1.96c4.83-3.51,8.63-3.97,12.41-1.42
				c4.64,3.22,5.48,9.13,0.81,15.85c-2.14,3.07-4.78,5.33-7.13,6.48L641.95,582.47z"/>
			<path class="st12" d="M665.42,527.27c10,5.37,10.7,14.8,6.97,21.73c-4.11,7.65-12.56,10.81-21.34,6.11
				c-8.94-4.8-11.27-13.6-6.86-21.81C648.55,525.19,657.15,522.83,665.42,527.27z M654.7,547.93c5.26,2.82,10.62,2.32,12.84-1.82
				c2.1-3.91-0.23-8.69-5.77-11.66c-4.24-2.28-10.18-3.02-12.69,1.68C646.47,540.99,650.17,545.5,654.7,547.93z"/>
			<path class="st12" d="M691.03,502.95c0.11,1.81-0.31,5.12-1.7,8.73c-3.51,8.97-11.59,12.56-20.51,9.07
				c-8.62-3.37-12.99-11.88-9.05-21.98c1.04-2.66,2.69-5.14,4.04-6.52l4.99,3.45c-1.05,0.95-2.25,2.45-3.26,5.05
				c-2.17,5.55,0.61,10.45,5.89,12.45c5.91,2.31,10.77-0.21,12.72-5.17c0.97-2.48,1.15-4.52,1.11-6.17L691.03,502.95z"/>
			<path class="st12" d="M659.13,474.97c2.18,0.64,3.52,2.83,2.75,5.44c-0.74,2.49-3.04,3.6-5.23,2.95c-2.3-0.68-3.57-2.91-2.83-5.4
				C654.57,475.41,656.79,474.35,659.13,474.97z M694.65,494.12l-29.62-8.74l2.21-7.48l29.61,8.74L694.65,494.12z"/>
			<path class="st12" d="M697.56,449.7c2.74,0.54,5.44,0.94,7.37,0.94l-1.37,6.9l-3.47-0.1l-0.04,0.19
				c2.01,2.27,3.06,5.78,2.28,9.76c-1.21,6.1-6.3,8.65-10.91,7.73c-7.59-1.5-10.17-9.05-7.89-20.24l-0.5-0.1
				c-1.99-0.39-5.45-0.23-6.51,5.12c-0.59,2.99-0.27,6.28,0.63,8.59L671.9,469c-0.93-2.51-1.46-6.69-0.51-11.48
				c1.92-9.7,8.63-11.28,15.29-9.97L697.56,449.7z M688.56,455.68c-1.14,5.39-1.04,10.78,3.56,11.69c2.99,0.59,4.74-1.07,5.22-3.5
				c0.61-3.11-0.95-5.68-2.98-6.86c-0.52-0.3-1.09-0.41-1.64-0.52L688.56,455.68z"/>
			<path class="st12" d="M668.54,426.61l7.89,0.75l0.7-7.39l5.81,0.55l-0.69,7.38l13.57,1.28c3.79,0.36,5.77-0.47,6.05-3.44
				c0.14-1.39,0.14-2.15-0.03-3.06l5.88,0.42c0.34,1.18,0.52,3.29,0.29,5.7c-0.27,2.9-1.44,5.15-3.15,6.45
				c-1.93,1.54-4.85,2.03-8.88,1.64l-14.45-1.36l-0.41,4.35l-5.81-0.55l0.41-4.35l-5.74-0.54L668.54,426.61z"/>
			<path class="st12" d="M668.88,404.35c2.29,0.04,4.15,1.8,4.09,4.53c-0.05,2.6-1.98,4.27-4.27,4.22
				c-2.41-0.05-4.21-1.86-4.15-4.46C664.59,405.97,666.46,404.37,668.88,404.35z M708.2,413.47l-30.88-0.64l0.16-7.79l30.88,0.64
				L708.2,413.47z"/>
			<path class="st12" d="M690.56,365.04c11.32-0.87,16.99,6.71,17.59,14.56c0.66,8.66-4.76,15.88-14.69,16.64
				c-10.12,0.77-16.82-5.39-17.54-14.69C675.23,372.38,681.21,365.76,690.56,365.04z M692.66,388.23c5.94-0.46,10.2-3.77,9.84-8.45
				c-0.34-4.43-4.88-7.19-11.14-6.72c-4.8,0.36-10.2,2.95-9.79,8.25C681.99,386.82,687.54,388.62,692.66,388.23z"/>
			<path class="st12" d="M683.3,357.02c-3.48,0.73-6.36,1.47-8.94,2.15l-1.41-6.64l4.46-1.33l-0.04-0.19
				c-2.64-0.87-6.2-3.55-7.26-8.58c-1.11-5.27,1.14-11.45,10.69-13.47l17.93-3.79l1.61,7.63l-17.05,3.61
				c-4.34,0.92-7.29,3.22-6.41,7.38c0.64,3.04,3.25,4.69,5.72,5.01c0.68,0.12,1.64,0.04,2.5-0.14l17.8-3.77l1.61,7.63L683.3,357.02z
				"/>
			<path class="st12" d="M669.64,287.44c1.41,0.58,2.4,1.58,2.98,2.99c0.58,1.41,0.58,2.82-0.01,4.23c-0.59,1.4-1.59,2.4-2.99,2.97
				c-1.41,0.58-2.82,0.58-4.22-0.01c-1.41-0.59-2.4-1.59-2.98-2.99c-0.58-1.41-0.58-2.82,0.01-4.22c0.59-1.41,1.59-2.4,2.99-2.98
				C666.81,286.85,668.23,286.85,669.64,287.44z"/>
		</g>
		<g>
			<path class="st11" d="M133.46,239.75l13.89-19.27l5.02,3.61l-4.79,6.64l5.49,3.95c0.79,0.58,1.55,1.04,2.23,1.4
				c0.69,0.35,1.38,0.62,2.07,0.79c0.7,0.17,1.43,0.28,2.2,0.32c0.78,0.04,1.62,0.04,2.55,0c1.71-0.09,3.54-0.26,5.52-0.51
				c1.96-0.25,3.8-0.51,5.5-0.79l0.85,6.47c-1.58,0.23-3.16,0.44-4.76,0.63c-1.59,0.19-3.07,0.35-4.42,0.46
				c-1.05,0.08-2.02,0.15-2.89,0.2c-0.88,0.05-1.57,0.02-2.05-0.1l-0.03,0.04c0.26,0.43,0.52,1.08,0.78,1.95
				c0.27,0.88,0.54,1.86,0.83,2.97c0.37,1.44,0.75,3.06,1.14,4.84c0.39,1.79,0.72,3.51,0.99,5.16l-6.64,1.08
				c-0.23-1.62-0.56-3.42-0.98-5.4c-0.41-1.97-0.86-3.8-1.33-5.51c-0.26-0.94-0.54-1.79-0.84-2.55c-0.31-0.76-0.66-1.45-1.07-2.08
				c-0.42-0.63-0.93-1.23-1.52-1.8c-0.6-0.57-1.33-1.17-2.19-1.8l-5.54-3.98l-4.98,6.92L133.46,239.75z M164.19,220.32l2.68-3.72
				l-15.14-10.91l4.02-5.57l43.2,31.13l-4.02,5.57l-22.99-16.57l-2.67,3.71l20.9,15.06l-4.02,5.58l-40.23-28.99l4.02-5.57
				L164.19,220.32z"/>
			<path class="st11" d="M204.32,177.53c1.76,2.05,3.08,4,3.95,5.85c0.87,1.84,1.37,3.86,1.5,6.07c0.13,2.2-0.11,4.75-0.7,7.64
				c-0.59,2.89-1.46,6.4-2.59,10.54l-6.56-1.69c0.75-2.65,1.36-4.96,1.84-6.96c0.48-1.99,0.81-3.75,1-5.27
				c0.18-1.52,0.23-2.82,0.14-3.92c-0.09-1.11-0.3-2.12-0.64-3.04l-10.31,9.43l-4.25-4.51l11.12-9.89l-4.36-5.09l-10.22,8.75
				l-4.02-4.7l15.49-13.25L204.32,177.53z M213.64,169.48l3.83-3.27l-11.84-13.84l5.22-4.46l34.62,40.46l-5.22,4.46l-18.72-21.88
				l-3.83,3.27l17.04,19.93l-5.22,4.47l-32.24-37.68l5.23-4.47L213.64,169.48z"/>
			<path class="st11" d="M246.9,163.47l2.68-1.53c2.39-1.36,4.9-2.9,7.52-4.62c2.62-1.71,5.02-3.42,7.18-5.09l3.79,5.03
				c-1.05,0.86-2.23,1.76-3.54,2.68c-1.32,0.93-2.72,1.87-4.19,2.83c-1.48,0.95-2.99,1.89-4.53,2.81c-1.55,0.93-3.07,1.82-4.6,2.69
				l-7.56,4.31l-17.29-30.28l6.37-3.63L246.9,163.47z M267.28,135.08l6.36-3.63l3.12,5.47l-6.36,3.63l14.2,24.87l-6.32,3.6
				l-26.4-46.24l6.31-3.6L267.28,135.08z"/>
			<path class="st11" d="M277.65,114.99l23.29-8l2.02,5.9l-16.4,5.63l7.27,21.17l3.41-1.17c2.6-0.9,5.35-1.94,8.24-3.14
				c2.9-1.2,5.58-2.42,8.01-3.65l2.76,5.58c-1.19,0.65-2.51,1.31-3.98,1.97c-1.46,0.67-3.02,1.33-4.64,1.99
				c-1.63,0.66-3.29,1.3-4.97,1.92c-1.69,0.62-3.35,1.21-5.02,1.78l-8.67,2.98L277.65,114.99z M319.65,115.46l6.93-2.38l2.05,5.96
				l-6.93,2.38l9.19,26.75l-6.88,2.36l-17.29-50.36l6.88-2.36L319.65,115.46z"/>
			<path class="st11" d="M369.3,92.93l0.57,6.21l-13.34,1.23l1.97,21.49l1.65-0.15c2.32-0.21,4.65-0.48,7-0.82
				c2.34-0.33,4.7-0.79,7.06-1.39l1.31,6.09c-2.28,0.63-4.72,1.12-7.31,1.48c-2.6,0.35-5.08,0.64-7.49,0.85l-8.78,0.81l-3.1-33.92
				L369.3,92.93z M382.93,104.84l4.67-0.43l-1.65-18.07l6.9-0.63l4.86,53.02l-6.9,0.63l-2.64-28.74l-4.67,0.43l2.39,26.17l-6.9,0.64
				l-4.52-49.38l6.9-0.63L382.93,104.84z"/>
			<path class="st11" d="M424.78,92.67l11.46,1.1l-0.59,6.1l-30.32-2.9l0.59-6.1l11.69,1.12l0.55-5.75l7.18,0.69L424.78,92.67z
				 M418.38,121.62c-2.02-0.19-3.78-0.62-5.28-1.28c-1.51-0.66-2.76-1.48-3.76-2.46c-1-0.98-1.73-2.06-2.19-3.26
				c-0.46-1.19-0.63-2.44-0.5-3.73l0.21-2.16c0.12-1.3,0.52-2.48,1.2-3.57c0.67-1.09,1.6-2.01,2.76-2.79
				c1.17-0.77,2.56-1.34,4.16-1.7c1.61-0.37,3.42-0.45,5.43-0.26c1.97,0.19,3.73,0.61,5.26,1.28c1.52,0.66,2.79,1.49,3.79,2.46
				c1,0.98,1.73,2.06,2.19,3.26c0.46,1.19,0.63,2.44,0.51,3.73l-0.2,2.16c-0.13,1.29-0.53,2.48-1.2,3.57
				c-0.68,1.09-1.6,2.01-2.77,2.78c-1.17,0.77-2.57,1.34-4.2,1.7C422.15,121.73,420.36,121.82,418.38,121.62z M417.71,133.41
				l27.01,2.58l-0.59,6.15l-34.26-3.27l1.42-14.76l7.23,0.69L417.71,133.41z M419.87,106.07c-0.95-0.1-1.81-0.04-2.58,0.15
				c-0.76,0.19-1.42,0.48-1.95,0.85c-0.53,0.38-0.95,0.79-1.24,1.27c-0.29,0.47-0.47,0.95-0.51,1.44l-0.13,1.37
				c-0.05,0.49,0.03,1,0.23,1.52c0.2,0.52,0.53,1.01,0.98,1.48c0.46,0.46,1.04,0.87,1.75,1.2c0.72,0.34,1.55,0.55,2.51,0.65
				c0.95,0.09,1.8,0.04,2.57-0.16c0.77-0.2,1.42-0.48,1.95-0.85c0.53-0.37,0.95-0.79,1.24-1.26c0.29-0.47,0.47-0.95,0.51-1.45
				l0.13-1.36c0.04-0.5-0.03-1-0.23-1.52c-0.2-0.52-0.52-1.01-0.98-1.48c-0.45-0.46-1.04-0.86-1.76-1.21
				C421.65,106.37,420.82,106.16,419.87,106.07z M446.44,104.87l6.95,0.66l-0.6,6.27l-6.96-0.66l-1.61,16.81l-7.18-0.69l3.68-38.41
				l7.18,0.69L446.44,104.87z"/>
			<path class="st11" d="M475.23,132.63l13.61,4.77l1.75-4.97l-19.61-6.88l1.97-5.61l46.03,16.12l-1.97,5.62l-19.61-6.87l-1.74,4.97
				l13.4,4.7l-5.76,16.42l-6.8-2.38l3.78-10.81l-27.02-9.46L475.23,132.63z M485.68,102.08l13.84,4.85l1.82-5.19l6.81,2.38
				l-1.82,5.19l13.84,4.85l-1.96,5.56l-13.83-4.84l-0.11,0.32c-0.29,0.83-0.27,1.67,0.06,2.51c0.33,0.84,0.99,1.66,1.96,2.45
				c1.91,1.48,3.78,2.86,5.61,4.15c1.84,1.29,3.67,2.54,5.51,3.75l-3.54,4.58c-1.7-1.16-3.5-2.41-5.42-3.75
				c-1.92-1.34-3.69-2.62-5.33-3.83c-1.44-1.08-2.52-2.01-3.24-2.8c-0.71-0.79-1.09-1.42-1.13-1.88l-0.05-0.02
				c-0.32,0.33-1.03,0.59-2.12,0.77c-1.1,0.18-2.54,0.24-4.34,0.18c-2.12-0.06-4.33-0.16-6.6-0.31c-2.27-0.15-4.47-0.31-6.59-0.49
				l0.1-5.85c2.05,0.15,4.21,0.31,6.47,0.48c2.27,0.17,4.62,0.25,7.05,0.26c2.59-0.03,4.19-0.88,4.78-2.57l0.11-0.33l-13.82-4.84
				L485.68,102.08z"/>
			<path class="st11" d="M552.16,156.51c1.87-2,3.5-4,4.9-5.99c1.39-1.99,2.75-4.13,4.08-6.41l1.18-2.03l-24.72-14.33l3.14-5.4
				l30.95,17.95l-3.65,6.29c-1.5,2.58-3.07,5.05-4.74,7.42c-1.65,2.36-3.28,4.42-4.86,6.15l7.33,4.25l-3.07,5.3l-17.98-10.43
				l-10.14,17.48l-6.29-3.65l10.14-17.48l-17.94-10.39l3.08-5.3L552.16,156.51z"/>
			<path class="st11" d="M610.32,212.02l-14.09,14.72l-24.48-23.44l14.09-14.72l5.17,4.95l-3.08,3.23l14.14,13.54l3.09-3.22
				L610.32,212.02z M595.1,217.58l2.93-3.06l-14.14-13.54l-2.93,3.06L595.1,217.58z M591.03,190.62c-1.46-1.4-2.62-2.79-3.45-4.18
				c-0.84-1.39-1.39-2.71-1.65-3.99c-0.25-1.28-0.23-2.47,0.07-3.58c0.3-1.11,0.86-2.09,1.68-2.95l1.19-1.24
				c0.82-0.85,1.78-1.45,2.88-1.8c1.1-0.35,2.28-0.42,3.58-0.21c1.28,0.2,2.64,0.69,4.06,1.46c1.42,0.78,2.86,1.87,4.32,3.27
				c1.47,1.4,2.61,2.79,3.45,4.17c0.84,1.39,1.39,2.72,1.65,3.99c0.25,1.28,0.23,2.47-0.07,3.59c-0.3,1.11-0.86,2.1-1.68,2.96
				l-1.19,1.24c-0.82,0.86-1.79,1.46-2.88,1.8c-1.1,0.35-2.29,0.42-3.57,0.22c-1.29-0.2-2.65-0.69-4.07-1.47
				C593.93,193.11,592.49,192.01,591.03,190.62z M599.86,181.39c-1.38-1.32-2.64-2.09-3.78-2.3c-1.14-0.22-1.98-0.04-2.53,0.54
				l-0.72,0.74c-0.55,0.58-0.7,1.43-0.43,2.56c0.27,1.13,1.09,2.35,2.47,3.67c1.38,1.32,2.64,2.09,3.77,2.31
				c1.14,0.22,1.99,0.04,2.55-0.54l0.71-0.74c0.56-0.58,0.7-1.43,0.43-2.56C602.07,183.94,601.24,182.71,599.86,181.39z
				 M611.5,174.38l8.56,8.2l-4.12,4.3l-22.17-21.23l4.12-4.3l8.39,8.04l3.96-4.14l5.22,4.99L611.5,174.38z M608.92,203.14
				l-4.71-4.51l4.15-4.35l4.72,4.52l2.14-2.23l-4.71-4.51l4.15-4.34l4.72,4.52l8.59-8.98l5.17,4.95l-21.14,22.08l-5.17-4.95
				L608.92,203.14z"/>
			<path class="st11" d="M613.24,222.29c1.47,2.05,2.83,3.97,4.11,5.76c1.27,1.79,2.49,3.46,3.65,5.02l3.22-2.29
				c-0.73-1.49-1.2-2.9-1.4-4.24c-0.2-1.33-0.21-2.56-0.02-3.68c0.19-1.12,0.56-2.1,1.11-2.97c0.55-0.86,1.24-1.59,2.05-2.16
				l1.68-1.19c0.94-0.66,2-1.1,3.22-1.3c1.21-0.21,2.49-0.13,3.83,0.25c1.36,0.38,2.72,1.08,4.11,2.1c1.38,1.03,2.73,2.46,4.04,4.3
				c1.29,1.8,2.19,3.53,2.72,5.19c0.53,1.66,0.75,3.19,0.66,4.59c-0.09,1.4-0.42,2.63-1.01,3.71c-0.59,1.08-1.35,1.95-2.28,2.61
				l-1.68,1.2c-0.81,0.57-1.71,0.98-2.71,1.23c-1,0.24-2.06,0.27-3.18,0.08c-1.12-0.18-2.28-0.6-3.47-1.22
				c-1.19-0.62-2.37-1.51-3.51-2.66l-3.12,2.22c1.72,2.29,3.27,4.29,4.66,6c1.38,1.71,2.67,3.24,3.86,4.59l-4.64,3.94
				c-1.11-1.22-2.34-2.68-3.7-4.36c-1.37-1.68-2.89-3.63-4.58-5.88c-1.7-2.24-3.58-4.79-5.65-7.64c-2.09-2.86-4.39-6.07-6.94-9.64
				L613.24,222.29z M626.18,266.99l-4.15-5.83l43.37-30.89l4.15,5.83L626.18,266.99z M638.21,225.17c-0.64-0.9-1.3-1.62-1.98-2.14
				c-0.68-0.52-1.34-0.87-1.98-1.05c-0.64-0.17-1.24-0.21-1.8-0.11c-0.57,0.09-1.05,0.29-1.46,0.58l-0.56,0.4
				c-0.44,0.31-0.78,0.71-1.04,1.21c-0.27,0.48-0.42,1.06-0.46,1.73c-0.04,0.66,0.07,1.4,0.35,2.21c0.27,0.81,0.73,1.67,1.37,2.57
				c1.28,1.8,2.6,2.86,3.94,3.17c1.34,0.3,2.43,0.16,3.28-0.44l0.55-0.39c0.84-0.6,1.33-1.59,1.48-2.96
				C640.07,228.56,639.5,226.98,638.21,225.17z M647.11,214.48l4.75-3.39l4.16,5.83l-4.76,3.39l6.68,9.37L653,233.2l-17.91-25.13
				l4.94-3.52L647.11,214.48z"/>
		</g>
		<path class="st2" d="M243.56,402.91c-1.54-1.51-3.02-3.07-4.48-4.66"/>
		<path class="st2" d="M245.01,404.31c-0.49-0.46-0.98-0.93-1.46-1.4"/>
		<path class="st2" d="M249.49,408.33c-0.52-0.44-1.03-0.88-1.54-1.33"/>
		<path class="st2" d="M334.87,306.05l0.02,0.01c-0.01-0.01-0.01-0.01-0.01-0.01L334.87,306.05z"/>
		<path class="st13" d="M589.27,373.01c-4.11-1.89-8.23-3.78-12.35-5.67c-2.16-0.99-4.32-1.98-6.48-2.97
			c-0.67-0.3-1.26-0.62-1.78-0.96c-3.31-2.08-4.07-4.82-2.63-9.14c4.32-13.07,8.65-26.14,12.98-39.21c0.46-1.39,0.92-2.78,1.38-4.17
			c1.52-4.61,3.05-9.26,4.62-14.04c-0.78,0.11-1.32,0.17-1.83,0.27c-17.81,3.71-35.63,7.43-53.44,11.14
			c-1.86,0.38-3.39,0.44-4.69,0.13c-2.23-0.53-3.75-2.15-5.02-5.08c-1.79-4.13-3.58-8.27-5.37-12.4c-1.4-3.25-2.81-6.51-4.22-9.77
			c-0.26-0.58-0.57-1.14-0.92-1.85c-0.7,0.73-1.22,1.27-1.73,1.81c-8.49,8.96-16.98,17.91-25.46,26.86
			c-0.48,0.51-0.95,1.01-1.43,1.51c-0.48,0.5-0.95,1-1.43,1.51c-2.63,2.78-5.26,5.55-7.9,8.33c-0.46,0.49-0.92,0.98-1.39,1.47
			c-0.46,0.49-0.93,0.98-1.4,1.48c-1,1.05-1.98,2.09-2.98,3.14c-2.38,2.5-5.17,3.24-7.88,2.22c-0.25-0.1-0.5-0.18-0.74-0.3
			c-2.94-1.48-4.26-4.43-3.58-7.96c0.68-3.39,1.35-6.78,2.01-10.17c0.15-0.76,0.3-1.52,0.46-2.27c0.14-0.75,0.3-1.51,0.44-2.26
			c0.32-1.6,0.64-3.2,0.95-4.8c0.13-0.67,0.26-1.35,0.4-2.02c0.14-0.67,0.27-1.35,0.41-2.02c4.27-21.65,8.55-43.3,12.82-64.95
			c0.66-3.3,1.31-6.6,1.96-9.9c0.5-2.47,0.99-4.95,1.47-7.43c0.09-0.47,0.06-0.97,0.09-1.66c-0.97,0.53-1.7,0.91-2.42,1.32
			c-10.14,5.76-20.27,11.53-30.42,17.26c-0.25,0.14-0.5,0.28-0.76,0.41h-7.57c-1.1-0.76-2.04-1.91-2.85-3.48
			c-11.07-21.35-22.13-42.7-33.2-64.05c-0.33-0.64-0.68-1.27-1.13-2.1c-0.45,0.84-0.78,1.44-1.09,2.04
			c-11.01,21.23-22.01,42.47-33.02,63.7c-0.93,1.77-1.96,3.06-3.11,3.89h-7.55c-0.29-0.14-0.58-0.3-0.89-0.47
			c-7.32-4.15-14.64-8.32-21.96-12.47c-3.53-2.01-7.06-4-10.8-6.12c0.05,0.73,0.03,1.2,0.12,1.65c0.5,2.5,0.99,5.01,1.48,7.51
			c0.66,3.31,1.31,6.61,1.96,9.91c4.08,20.64,8.15,41.28,12.21,61.93c0.13,0.67,0.27,1.34,0.4,2c0.13,0.67,0.26,1.34,0.4,2.01
			c0.6,3.09,1.21,6.17,1.82,9.25c0,0.01,0,0.01,0,0.01c0.86,4.41,1.74,8.81,2.6,13.22c0.26,1.29,0.27,2.76-0.09,4.01
			c-0.69,2.29-2.29,3.79-4.19,4.42c-2.47,0.81-5.5,0.13-7.78-2.25c-5.59-5.87-11.16-11.75-16.73-17.64
			c-0.48-0.5-0.96-1.01-1.44-1.52c-0.48-0.51-0.96-1.01-1.43-1.52c-3.4-3.59-6.79-7.17-10.19-10.75c-4.63-4.88-9.26-9.76-14.04-14.8
			c-0.36,0.8-0.64,1.4-0.91,2.02c-1.39,3.23-2.79,6.45-4.18,9.68c-1.88,4.35-3.77,8.71-5.67,13.06c-1.08,2.47-2.65,3.93-4.73,4.44
			c-1.11,0.26-2.35,0.28-3.75-0.01c-15.52-3.21-31.02-6.46-46.54-9.69c-3.15-0.66-6.29-1.28-9.67-1.96
			c0.32,1.02,0.52,1.67,0.73,2.31c1.31,3.92,2.6,7.86,3.9,11.79c4.8,14.51,9.61,29.02,14.4,43.53c1.39,4.19,0.61,6.97-2.63,9.04
			c-0.52,0.33-1.09,0.64-1.73,0.94c-2.19,1.01-4.38,2.01-6.57,3.01c-4.09,1.87-8.17,3.74-12.26,5.62c-0.64,0.3-1.27,0.64-2.02,1.02
			c0.52,0.45,0.87,0.78,1.24,1.08c2.19,1.75,4.39,3.5,6.59,5.24c6.28,5,12.56,10,18.85,15c0.51-3.63,1.08-7.27,1.71-10.93
			c0.75,1.15,1.54,2.27,2.32,3.38c0.45,0.64,0.91,1.27,1.38,1.9c0.46,0.63,0.94,1.25,1.41,1.86c0.87,1.11,1.74,2.2,2.65,3.28
			c0.49,0.59,0.99,1.19,1.5,1.77c0.49,0.56,0.99,1.11,1.48,1.66c1.46,1.6,2.95,3.15,4.48,4.66c0.48,0.47,0.96,0.94,1.46,1.4
			c0.96,0.92,1.95,1.82,2.94,2.7c0.51,0.45,1.02,0.89,1.54,1.33c16.53,14.09,37,23.25,59.33,25.96c1.65,0.2,3.31,0.36,4.98,0.49
			c0.72,0.06,1.42,0.09,2.15,0.13c1.42,0.09,2.83,0.15,4.25,0.2c0.72,0.02,1.46,0.04,2.18,0.05c21.34,0.25,42.68-4.83,61.87-13.93
			c21.53-10.21,37.08-27.48,57.26-38.82c0.6-0.33,1.19-0.66,1.8-0.99c0.6-0.32,1.2-0.63,1.81-0.94c4.45-2.27,9.15-4.24,14.19-5.76
			c8.43-2.55,17.19-4.08,26-4.57c21.55-1.21,42.04,4.26,59.47,14.48c1.06,0.62,2.1,1.28,3.13,1.93c1.05,0.66,2.09,1.35,3.11,2.04
			c3.65,2.49,7.15,5.18,10.47,8.08c6.71-5.34,13.41-10.66,20.13-16.01c0.15-0.12,0.3-0.24,0.45-0.36c2.6-2.06,5.18-4.14,7.9-6.31
			C590.48,373.6,589.88,373.29,589.27,373.01z"/>
		<path class="st12" d="M557.49,402.11c-0.89-0.55-1.78-1.09-2.7-1.62c-0.88-0.51-1.78-1.01-2.67-1.5
			c-1.63-0.88-3.27-1.73-4.94-2.53c-4.62-2.22-9.39-4.13-14.3-5.72c-12.78-4.14-26.5-6.09-40.65-5.3
			c-9.36,0.52-18.64,2.14-27.6,4.85c-4.48,1.35-8.69,3.05-12.72,4.97c-0.61,0.29-1.22,0.59-1.83,0.89
			c-0.61,0.31-1.21,0.62-1.81,0.93c4.37,11.65,8.48,22.24,10.24,26.75c-19.4,28.14-43,47.91-49.36,52.98
			c-8.15-2.32-39.1-10.64-70.99-12.39c-2.25-3.54-9.99-17.29-11.81-20.69c-0.73,0.06-1.46,0.13-2.19,0.17
			c-1.42,0.09-2.85,0.17-4.28,0.22c-0.75,0.03-1.5,0.03-2.24,0.04c2.23,4.41,10.52,19.24,13.47,23.91
			c-4.58,6.25-19.53,27.68-30.29,55.05c-3.15,0.3-6.28,0.45-9.3,0.45c-23.85,0-36.48-9.24-38.7-11.01
			c-17.66-27.72-20.61-57.61-20.98-62.4c2.71-9.51,5.96-17.74,9.31-24.78c-0.52-0.45-1.05-0.92-1.57-1.39
			c-1.02-0.91-2.02-1.83-3-2.78c-0.51-0.49-1.01-0.98-1.51-1.48c-0.15,0.31-0.31,0.64-0.47,0.95l-0.87-0.83
			c0.1-0.39,0.18-0.78,0.28-1.18c-0.56-0.57-1.1-1.14-1.64-1.71c-0.56-0.59-1.11-1.19-1.66-1.8c-1-1.1-1.97-2.22-2.92-3.36
			c-0.53-0.63-1.06-1.27-1.58-1.91c-0.52-0.64-1.03-1.29-1.54-1.94c-4.58,15.58-7.05,32.05-7.05,49.1
			c0,96.14,78.22,174.37,174.37,174.37c96.14,0,174.37-78.23,174.37-174.37C566.38,437.88,563.25,419.4,557.49,402.11z
			 M233.13,423.42l0.48-0.61c-0.33,0.68-0.65,1.37-0.97,2.08c0.09-0.45,0.19-0.9,0.28-1.35L233.13,423.42z M350.16,609.02
			c-1.62,0.17-3.74,0.31-6.3,0.31c-3.52,0-7.19-0.27-10.9-0.8c-29.92-11.7-55.23-31.76-73.75-58.08l-2.37-5.06
			c-3.55-7.58-3.97-16.75-3.71-23.04c6.96,4.06,19.45,9.19,38.14,9.19c3.26,0,6.72-0.17,10.26-0.51
			c2.27,3.66,7.08,11.12,13.73,19.58c8.06,10.23,20.58,24.07,34.94,32.61C348.86,595.49,349.54,604.39,350.16,609.02z M472.43,594.4
			l-3.04,5.41l-0.22,0.31c-23.63,12.79-50.18,19.52-77.16,19.52c-6.16,0-12.44-0.36-18.67-1.08c-4.24-1.34-10.16-3.84-14.93-8.26
			c-0.52-2.81-1.86-11.94-0.35-25.89c8.5-1.86,37.29-9.19,62.77-27.71c6.16,3.92,21.51,11.2,50.52,11.2c2.51,0,5.12-0.06,7.79-0.18
			C479.17,585.05,472.48,594.33,472.43,594.4z M481.78,559.64c-3.49,0.21-6.93,0.31-10.24,0.31c-28.39,0-42.73-7.6-46.83-10.21
			c-0.17-8.8-1.4-41.68-10.03-67.2c6.89-5.57,30.48-25.6,49.89-53.53c21.72,6.82,46.47,11.38,53.66,12.63
			c2.44,6.74,10.36,31.15,10.55,65.76C502.98,544.78,485.2,557.42,481.78,559.64z M545.52,510.6l-8.84-4.41
			c-0.37-36.77-8.89-61.74-11.3-68.05c6.69-16.71,9.85-34.77,11.12-43.82c1.85,0.67,4.1,1.55,6.55,2.65
			c7.65,19.15,11.53,39.37,11.53,60.11C554.57,475.42,551.53,493.41,545.52,510.6z"/>
	</g>
</g>
</svg>
