<?xml version="1.0" encoding="utf-8"?>
<!-- Generator: Adobe Illustrator 25.4.1, SVG Export Plug-In . SVG Version: 6.00 Build 0)  -->
<svg version="1.1" xmlns="http://www.w3.org/2000/svg" xmlns:xlink="http://www.w3.org/1999/xlink" x="0px" y="0px"
	 viewBox="0 0 800 800" style="enable-background:new 0 0 800 800;" xml:space="preserve">
<style type="text/css">
	.st0{display:none;}
	.st1{display:inline;}
	.st2{fill:#FFFFFF;}
	.st3{fill:#F6B856;}
	.st4{fill:#FF0000;}
	.st5{fill:#0350A0;}
	.st6{fill:#160D00;}
	.st7{fill:#C0C0C0;}
	.st8{fill:#4D4D4D;}
	.st9{fill:#424242;}
	.st10{fill:#0E0E0E;}
</style>
<g id="Layer_1" class="st0">
</g>
<g id="Layer_2">
	<circle class="st2" cx="400" cy="400" r="366"/>
	<circle class="st2" cx="392" cy="398" r="366"/>
	<g>
		<path class="st7" d="M400,16C187.92,16,16,187.92,16,400s171.92,384,384,384s384-171.92,384-384S612.08,16,400,16z M400,748.78
			C207.37,748.78,51.22,592.63,51.22,400S207.37,51.22,400,51.22S748.78,207.37,748.78,400S592.63,748.78,400,748.78z"/>
		<g>
			<g>
				<path class="st8" d="M299.31,437.6c27.42,3.38,55.56-2.19,80.35-14.14c29.2-14.08,48.06-40.6,79.93-50.41
					c8.98-2.76,18.3-4.42,27.68-4.95c30.8-1.76,59.55,9.5,81.13,28.76c7.14-5.78,14.28-11.56,21.42-17.35
					c2.92-2.36,5.82-4.74,8.88-7.23c-0.87-0.44-1.5-0.78-2.15-1.08c-6.68-3.12-13.37-6.24-20.05-9.36
					c-5.11-2.38-6.47-5.52-4.7-10.94c4.61-14.16,9.22-28.33,13.83-42.49c2.11-6.49,4.21-12.99,6.39-19.74
					c-0.84,0.13-1.4,0.18-1.96,0.3c-18.97,4.02-37.94,8.05-56.91,12.07c-5.38,1.14-8.2-0.34-10.34-5.36
					c-3.4-8.01-6.8-16.02-10.21-24.03c-0.27-0.63-0.6-1.24-0.98-2.01c-0.74,0.78-1.3,1.37-1.85,1.96c-14.91,16-29.8,32-44.72,47.99
					c-2.77,2.97-6.07,3.68-9.18,2.08c-3.13-1.6-4.54-4.8-3.8-8.63c7.43-38.23,14.85-76.46,22.27-114.69c0.1-0.51,0.06-1.04,0.1-1.79
					c-1.04,0.57-1.81,0.99-2.57,1.43c-10.8,6.24-21.59,12.49-32.4,18.7c-1.13,0.65-2.38,1.28-3.64,1.51
					c-3.63,0.66-6.31-0.97-8.27-4.83c-11.79-23.14-23.57-46.28-35.36-69.42c-0.35-0.69-0.72-1.37-1.2-2.27
					c-0.48,0.91-0.83,1.56-1.16,2.21c-11.72,23.01-23.44,46.02-35.17,69.03c-2.91,5.71-6.8,6.88-12.29,3.71
					c-7.8-4.5-15.59-9.02-23.38-13.52c-3.76-2.17-7.52-4.34-11.5-6.63c0.05,0.79,0.03,1.3,0.13,1.79
					c7.42,38.23,14.85,76.46,22.23,114.7c0.27,1.4,0.29,3-0.11,4.35c-1.68,5.69-8.44,6.93-12.74,2.34
					c-10.6-11.32-21.16-22.69-31.73-34.04c-4.93-5.29-9.86-10.58-14.95-16.04c-0.38,0.86-0.69,1.51-0.97,2.18
					c-3.5,8.21-6.97,16.43-10.5,24.63c-1.76,4.1-4.72,5.7-9.03,4.79c-16.53-3.47-33.04-7-49.56-10.5c-3.35-0.71-6.71-1.38-10.3-2.12
					c0.34,1.1,0.55,1.8,0.78,2.5c6.5,19.99,13,39.97,19.49,59.96c1.71,5.26,0.33,8.48-4.65,10.81c-6.68,3.13-13.37,6.23-20.05,9.36
					c-0.69,0.32-1.35,0.69-2.15,1.1c0.55,0.49,0.92,0.84,1.32,1.17c9.03,7.31,18.06,14.62,27.09,21.93
					c0.55-3.94,1.15-7.89,1.83-11.84C232.93,413.4,263.95,433.23,299.31,437.6z"/>
			</g>
			<g>
				<g>
					<path class="st9" d="M341.32,454.42c17.75,2.93,35.48,5.92,53.22,8.93c11.11,1.89,22.2,3.86,33.32,5.69
						c0.98,0.16,2.39-0.12,3.1-0.75c23.67-20.97,45.3-43.84,64.46-69.02c0.91-1.19,1.01-2.15,0.5-3.53
						c-2.31-6.24-4.6-12.48-6.9-18.72c-0.59,0.02-1.17,0.02-1.75,0.05c-9.38,0.54-18.7,2.19-27.68,4.95
						c-31.87,9.81-50.73,36.32-79.93,50.41c-14.29,6.89-29.69,11.65-45.43,13.8c1.06,1.87,2.13,3.74,3.23,5.59
						C338.41,453.44,339.53,454.13,341.32,454.42z"/>
				</g>
				<g>
					<path class="st9" d="M571.28,416.42c4.58,10.68,7.34,21.87,9.35,33.28c2.93,16.61,4.09,33.41,4.98,50.22
						c0.16,3.09,1.18,4.36,3.92,5.55c5.04,2.2,9.81,5.03,14.76,7.63c1.51-7.41,2.32-15.1,2.32-23.08
						c0-31.13-13.07-59.51-33.82-80.06c-0.51,1.42-1.04,2.83-1.62,4.23C570.91,414.83,571,415.77,571.28,416.42z"/>
				</g>
				<g>
					<path class="st9" d="M599.33,530.35c-7.94,16.58-17.96,31.95-29.72,45.8C582.55,562.87,592.91,547.54,599.33,530.35z"/>
				</g>
				<g>
					<path class="st9" d="M229.55,511.17c0.58,0.81,1.28,1.57,2.05,2.2c7.66,6.3,16.54,9.92,26.21,11.77
						c10.58,2.01,21.3,1.65,31.98,2.23c4.91,0.27,6.99-1.37,8.89-5.8c9.97-23.22,21.62-45.56,36.93-65.8
						c0.82-1.08,0.65-1.8,0.07-2.89c-1.14-2.13-2.29-4.25-3.44-6.37c-10.92,1.34-21.98,1.44-32.93,0.09
						c-34.03-4.2-64-22.75-83.44-50.76c-1.52,3.16-2.93,6.36-4.25,9.62c-2.76,20.4-3.68,40.53-2.05,60.01
						c0.01,0.05,0.02,0.09,0.03,0.14C213.59,481.91,219.62,497.41,229.55,511.17z"/>
				</g>
				<g>
					<path class="st9" d="M522.83,573.46c-0.65,0-1.08-0.04-1.49,0.01c-13.31,1.33-26.56,1.01-39.75-1.37
						c-12.44-2.25-24.33-6.18-35.7-11.69c-0.94-0.46-1.76-1.02-2.93-0.1c-10.17,7.97-21.64,13.6-33.65,18.1
						c-13.72,5.14-27.51,10.11-41.41,14.74c-4.4,1.47-5.96,3.99-6.55,8.27c-1.25,9.13-0.55,18.17,0.28,27.23
						c28.77,6.76,58.73,8.47,87.15,5.06c21.17-2.54,43.29-8.78,64.04-18.33c-0.11-0.01-0.2-0.02-0.31-0.02
						C520.54,602.3,522.29,588.08,522.83,573.46z"/>
				</g>
				<g>
					<path class="st9" d="M579.13,454.23c-1.46-12.35-4.59-24.4-9.37-35.95c-0.54-1.3-1.3-1.84-2.66-2.09
						c-4.9-0.88-9.84-1.67-14.66-2.9c-17.42-4.42-34.8-8.99-52.19-13.56c-1.5-0.39-2.41-0.26-3.43,1.08
						c-18.86,24.94-40.25,47.55-63.58,68.33c-1.27,1.13-1.54,2.08-1.04,3.69c4.05,13.08,6.58,26.49,8.17,40.06
						c1.65,14.14,3.01,28.31,4.42,42.48c0.17,1.7,0.83,2.64,2.41,3.38c18.65,8.8,38.21,13.47,58.88,13.49
						c4.62-0.25,9.23-0.57,13.86-0.71c3.83-0.12,7.08-1.44,10.17-3.7c7.53-5.51,14.23-11.92,19.97-19.18
						c11.17-14.11,21.97-28.51,32.85-42.84c0.57-0.76,0.78-2.03,0.69-3.02C582.21,486.59,581.04,470.37,579.13,454.23z"/>
				</g>
				<g>
					<path class="st9" d="M360.26,596.66c0.33-1.3-0.32-1.64-1.11-2.17c-13.68-9.03-25.77-19.87-36.17-32.5
						c-8.36-10.16-16.32-20.64-24.41-31.01c-0.88-1.13-1.8-1.58-3.25-1.61c-9.25-0.2-18.51-0.29-27.74-0.82
						c-9.07-0.52-17.93-2.36-26.11-6.49c-4.09-2.07-7.92-4.65-11.97-7.06c-1.24,6.94-1.06,13.75,0.09,20.44
						c8.47,15.65,19.82,30.35,34.66,43.8c26.4,23.92,59.84,40.23,95.19,48.88C358.3,617.6,357.65,607.08,360.26,596.66z"/>
				</g>
			</g>
		</g>
		<g>
			<path class="st9" d="M400,50.91C207.2,50.91,50.91,207.2,50.91,400S207.2,749.09,400,749.09S749.09,592.8,749.09,400
				S592.8,50.91,400,50.91z M400,734.84C215.07,734.84,65.16,584.93,65.16,400S215.07,65.16,400,65.16S734.84,215.07,734.84,400
				S584.93,734.84,400,734.84z"/>
		</g>
		<g>
			<path class="st10" d="M400,36.95C199.49,36.95,36.95,199.49,36.95,400S199.49,763.05,400,763.05S763.05,600.51,763.05,400
				S600.51,36.95,400,36.95z M400,748.24C207.67,748.24,51.76,592.33,51.76,400S207.67,51.76,400,51.76S748.24,207.67,748.24,400
				S592.33,748.24,400,748.24z"/>
		</g>
		<g>
			<path d="M250.86,141.2c-2.35-0.12-6.53-1.39-8.62-3.42c0.97,2.86,0.45,6.87-0.89,9.67l-2.55-0.78c1.89-3.73,1.95-8.7-0.84-13.45
				l-1.34-2.27l-4.72,2.77l-1.16-1.97l11.61-6.82l1.16,1.97l-4.47,2.63l1.29,2.19c2.92,4.98,7.39,6.79,10.98,6.85L250.86,141.2z
				 M255.88,144.15l-7.25-12.33l-3.61,2.12l-1.19-2.03l3.61-2.12l-4.8-8.16l2.33-1.37l13.23,22.53L255.88,144.15z M261.36,142.54
				l-14.26-24.28l2.36-1.39l14.26,24.27L261.36,142.54z"/>
			<path d="M279.13,127.3l-2.47-1.21c2.65-3.48,3.95-7.1,4.07-10.73l-6.17,3.45l-1.4-2.07l7.45-3.8c-0.18-1.38-0.44-2.7-0.92-4.04
				l-7.18,2.92l-0.89-2.17l9.83-4.01C284.64,113.53,283.87,120.58,279.13,127.3z M299.24,125.13l-5.43-13.32l-3.07,1.25l4.91,12.04
				l-2.47,1.01l-9.86-24.2l2.48-1.01l4.08,10.01l3.07-1.25l-4.31-10.58l2.53-1.03l10.61,26.05L299.24,125.13z"/>
			<path d="M309.24,113.96c-0.86,0.28-1.69,0.52-2.5,0.75l-5.04-17.45l2.72-0.78l4.36,15.1c3.22-0.93,9.05-3.02,11.99-4.78
				c0.35,0.74,0.69,1.45,1.06,2.14C318.98,110.64,313,112.8,309.24,113.96z M324.04,99.39l4.3-1.24l0.67,2.32l-4.3,1.25l4.09,14.13
				l-2.75,0.8l-7.81-27.04l2.75-0.79L324.04,99.39z"/>
			<path d="M340.61,103.72c3.65-0.65,8.7-1.84,11.39-2.93l0.72,2.23c-2.78,1.11-7.48,2.28-12.52,3.2l-3.11,0.55l-3.2-18.04
				l13.09-2.32l0.41,2.31l-10.3,1.82l2.37,13.38L340.61,103.72z M355.53,93.03l4.31-0.76l0.42,2.35l-4.31,0.76l2.58,14.55
				l-2.79,0.49l-4.91-27.71l2.79-0.5L355.53,93.03z"/>
			<path d="M382.3,98.05c3.29-0.1,6.79-0.46,8.96-1.01l0.46,2.34c-2.43,0.59-6.48,0.97-9.99,1.07l-2.7,0.08l-0.53-17.58l10.98-0.33
				l0.07,2.32l-8.15,0.25l0.39,12.88L382.3,98.05z M399.4,107.01l-0.45-15l-3.35,0.1l0.41,13.62l-2.74,0.08l-0.79-26.15l2.74-0.08
				l0.31,10.21l3.35-0.1l-0.33-10.82l2.74-0.08l0.85,28.14L399.4,107.01z"/>
			<path d="M410.03,86.3l0.17-2.28l16.47,1.23l-0.17,2.28L410.03,86.3z M417.43,98.28c-3.76-0.28-6.47-2.39-6.24-5.5
				c0.24-3.18,3.2-4.83,6.99-4.55c3.82,0.29,6.51,2.36,6.27,5.54C424.22,96.85,421.25,98.57,417.43,98.28z M412.62,106.44l0.55-7.35
				l2.82,0.21l-0.38,5.07l15.89,1.19l-0.17,2.28L412.62,106.44z M418.01,90.51c-2.02-0.15-3.86,0.68-3.99,2.48
				c-0.13,1.7,1.56,2.86,3.58,3.01c2.05,0.15,3.9-0.74,4.02-2.45C421.76,91.76,420.06,90.67,418.01,90.51z M414.35,82.4l0.17-2.31
				l8.15,0.61L422.51,83L414.35,82.4z M431.52,92.36l-0.66,8.86l-2.82-0.21l1.55-20.67l2.83,0.21l-0.7,9.41l4.21,0.31l-0.18,2.41
				L431.52,92.36z"/>
			<path d="M463,105.06l0.56-2.52l-10.94-2.44l0.5-2.26l24.8,5.52l-0.5,2.26l-11.06-2.46l-0.56,2.51l7.89,1.76l-1.95,8.77l-2.8-0.62
				l1.45-6.51l-16-3.56l0.5-2.26L463,105.06z M475.84,101.48c-3.89-1.33-8.02-4.13-8.99-6.89c-2.03,2.15-6.63,2.95-10.99,2.4
				l-0.72-2.54c4.44,0.79,9.28,0.12,10.65-2.18l-8.33-1.85l0.5-2.23l19.68,4.38l-0.5,2.23l-8.27-1.84c0.34,2.65,4.7,5.4,8.65,6.48
				L475.84,101.48z M463.67,87.82l0.5-2.27l8.9,1.98l-0.5,2.26L463.67,87.82z"/>
			<path d="M504.15,111.78l4.03,1.35l-0.73,2.17l-10.72-3.59l-3.64,10.87l-2.72-0.91l3.64-10.87l-10.66-3.57l0.73-2.17l17.41,5.84
				c1.58-2.49,3.09-6.27,4.06-9.17l-15.52-5.2l0.75-2.23l18.26,6.12C507.74,104.32,506.17,108.28,504.15,111.78z"/>
			<path d="M512.94,129.73l4.15-9.08l2.58,1.18l-1.1,2.4l11.39,5.2l1.12-2.46l2.61,1.19l-4.17,9.14L512.94,129.73z M520.39,120.85
				c-3.55-1.62-5.17-4.35-4.04-6.8c1.14-2.49,4.26-3.05,7.8-1.43c3.52,1.61,5.17,4.34,4.03,6.83
				C527.07,121.89,523.9,122.46,520.39,120.85z M529.02,131.48l-11.39-5.2l-1.16,2.55l11.39,5.2L529.02,131.48z M517.42,108.28
				l0.92-2.02l13.91,6.35l-0.92,2.02L517.42,108.28z M523.25,114.59c-1.79-0.82-3.75-0.69-4.36,0.63c-0.59,1.29,0.63,2.87,2.39,3.68
				c1.81,0.83,3.73,0.68,4.32-0.61C526.2,116.96,525.07,115.42,523.25,114.59z M522.67,106.32l0.94-2.05l7.41,3.38l-0.94,2.05
				L522.67,106.32z M531.64,115.2l3.98,1.82l2.85-6.24l2.61,1.19l-6.8,14.88l-2.6-1.19l0.85-1.88l-3.98-1.82l0.94-2.05l3.98,1.82
				l1.22-2.67l-3.98-1.82L531.64,115.2z"/>
			<path d="M546.23,141.62c-2.73-1.46-5.75-3.06-7.77-4.26l0.8-2.3c2,1.18,4.39,2.52,6.83,3.82l1.31-2.22
				c-2.53-1.98-3.46-4.59-2.2-6.72c1.46-2.47,4.85-2.63,8.26-0.62c3.46,2.05,4.94,5.06,3.47,7.55c-1.28,2.16-4.08,2.6-7.11,1.26
				l-1.21,2.05c2.64,1.41,5.42,2.8,7.21,3.56l-0.93,2.07C552.7,144.85,549.29,143.2,546.23,141.62z M547.05,123.85l1.16-1.97
				l14.44,8.54l-1.16,1.97L547.05,123.85z M552.32,131.26c-1.91-1.13-3.81-1.02-4.53,0.2c-0.7,1.19,0.1,2.94,2.01,4.07
				c1.94,1.15,3.88,1.03,4.59-0.17C555.1,134.14,554.25,132.41,552.32,131.26z M552.72,122.3l1.16-1.97l7.01,4.15l-1.17,1.97
				L552.72,122.3z M553.43,151.19l14.33-24.22l2.44,1.44l-14.33,24.22L553.43,151.19z"/>
		</g>
		<g>
			<path d="M146.46,534.21l2.34,4.24l-20.63,11.36l-2.34-4.24L146.46,534.21z M138.69,544.22c4.78,0.58,9.57,1.23,14.31,1.8
				c0.83,1.5,1.59,2.96,2.4,4.44l-13.76-1.87c-2.18,4.57-4.38,9.12-6.63,13.65l-2.68-4.87
				C134.44,553.02,136.62,548.57,138.69,544.22z"/>
			<path d="M145.3,562.52l0.4-0.26c4.84-3.2,9.52-2.02,12.3,2.18c3.03,4.58,2.07,8.91-2.71,12.08l-0.4,0.26
				c-4.86,3.22-9.49,2-12.28-2.2C139.55,569.94,140.61,565.63,145.3,562.52z M152.05,573.11l0.69-0.45c3.75-2.48,3.7-4.55,2.45-6.43
				c-1.36-2.06-3.53-2.35-6.71-0.25l-0.63,0.42c-3.69,2.44-3.7,4.55-2.45,6.43C146.77,574.88,148.93,575.17,152.05,573.11z"/>
			<path d="M166.12,576.72l2.62,3.44l-1.67,1.27l0.1,0.14c1.63-0.07,3.44,0.79,4.59,2.29c0.29,0.38,0.51,0.73,0.51,0.9l-3.17,2.41
				c-0.17-0.34-0.47-0.85-0.74-1.2c-0.95-1.25-2.24-2.22-3.43-2.7l-10.25,7.78l-2.72-3.58L166.12,576.72z"/>
			<path d="M168.37,594.56l0.34-0.29c4.44-3.84,9.09-3.18,12.23,0.45c3.52,4.08,2.69,7.79-1.62,11.51l-1.25,1.08l-7.45-8.62
				c-2.39,2.48-2.04,4.62,0.07,7.06c1.44,1.66,2.93,2.6,4.41,3.31l-2.23,1.93c-1.43-0.4-3.42-1.44-5.44-3.78
				C163.52,602.7,164.06,598.29,168.37,594.56z M172.83,596.79l4.56,5.27c2.36-2.04,2.5-3.66,1.07-5.33
				C177.4,595.51,175.53,594.77,172.83,596.79z"/>
			<path d="M179.98,613.7c2.38-2.37,5.1-1.79,8.01,0.4l3.1,2.43l0.85-0.85c1.55-1.55,1.24-2.6-0.82-4.66
				c-1.24-1.24-2.5-2.21-3.56-2.8l2.24-2.23c1.67,0.8,3.32,1.97,5.07,3.72c2.96,2.96,3.61,5.75,0.88,8.47l-9.02,8.99l-2.59-2.6
				l0.78-1.26l-0.14-0.15c-1.29,0.17-2.86-0.39-4.44-1.97C178.03,618.89,177.55,616.12,179.98,613.7z M186.21,621.4l2.92-2.9
				l-2.28-1.85c-1.31-1.07-2.33-1.22-3.49-0.05c-1.17,1.16-0.9,2.4,0.14,3.45C184.29,620.84,185.43,621.4,186.21,621.4z"/>
			<path d="M204.4,619.42l3.27,2.83l-1.03,1.19l0.13,0.11c1.88,0.13,3.98,0.9,5.64,2.34c2.57,2.22,3,4.45,0.69,7.13l-8.62,9.96
				l-3.43-2.96l7.92-9.16c1.1-1.27,1.08-2.2-0.58-3.63c-0.93-0.81-2.31-1.37-3.33-1.7l-8.89,10.27l-3.4-2.94L204.4,619.42z"/>
			<path d="M225.35,648.27l0.29-0.42c3.44-5.05,8.13-5.46,12.47-2.5c1.9,1.3,2.83,2.43,3.4,3.6l-1.91,2.81
				c-0.82-1.23-1.45-2.07-3.15-3.23c-2.38-1.62-4.76-1.25-6.71,1.61l-0.39,0.56c-2.2,3.23-1.87,5.42,0.83,7.25
				c1.73,1.18,3.3,1.5,4.28,1.64l-1.84,2.69c-1.32-0.07-3.05-0.46-5.15-1.89C222.99,657.33,222.07,653.09,225.35,648.27z"/>
			<path d="M239.68,662.4c1.7-2.9,4.48-3.02,7.85-1.64l3.62,1.57l0.61-1.04c1.11-1.9,0.54-2.82-1.97-4.3
				c-1.51-0.89-2.98-1.51-4.16-1.8l1.6-2.72c1.82,0.35,3.71,1.06,5.84,2.32c3.61,2.12,4.95,4.65,3,7.97l-6.45,10.98l-3.17-1.86
				l0.43-1.42l-0.18-0.1c-1.2,0.49-2.87,0.35-4.79-0.78C239.11,667.92,237.94,665.36,239.68,662.4z M247.65,668.28l2.09-3.55
				l-2.67-1.21c-1.54-0.7-2.56-0.59-3.4,0.83c-0.83,1.42-0.26,2.55,1.01,3.3C245.66,668.22,246.9,668.47,247.65,668.28z"/>
			<path d="M264.77,661.75l3.88,1.91l-0.7,1.42l0.15,0.08c1.85-0.35,4.08-0.13,6.05,0.84c3.05,1.5,4.03,3.55,2.47,6.72l-5.82,11.82
				l-4.06-2l5.35-10.87c0.74-1.51,0.49-2.4-1.48-3.37c-1.11-0.55-2.58-0.74-3.66-0.81l-6,12.19l-4.03-1.98L264.77,661.75z"/>
			<path d="M279.16,683.06c1.26-3.12,3.99-3.65,7.52-2.78l3.81,1.02l0.45-1.11c0.82-2.04,0.12-2.88-2.58-3.97
				c-1.62-0.65-3.16-1.06-4.38-1.17l1.18-2.93c1.85,0.08,3.83,0.51,6.12,1.43c3.88,1.57,5.58,3.88,4.14,7.45l-4.77,11.81l-3.41-1.37
				l0.22-1.47l-0.19-0.08c-1.12,0.66-2.79,0.76-4.86-0.07C279.4,688.6,277.87,686.25,279.16,683.06z M287.91,687.71l1.54-3.82
				l-2.82-0.8c-1.62-0.47-2.62-0.21-3.24,1.32c-0.62,1.53,0.11,2.57,1.48,3.12C285.92,687.94,287.19,688.01,287.91,687.71z"/>
			<path d="M300.21,687.45l0.14-0.42c2-6.27,6.03-7.83,10.41-6.43c1.93,0.62,2.98,1.5,3.59,2.16l2.41-7.55l4.28,1.37l-7.63,23.88
				l-3.66-1.17l0.07-1.45l-0.16-0.05c-1.4,0.67-3.17,0.79-5.29,0.11C300.97,696.8,298.27,693.52,300.21,687.45z M310.43,695.03
				l2.95-9.25c-0.42-0.6-1.5-1.27-2.87-1.71c-2.48-0.79-4.35-0.02-5.64,4l-0.19,0.59c-1.31,4.08-0.09,5.7,2.29,6.46
				C308.45,695.59,309.68,695.33,310.43,695.03z"/>
			<path d="M325.82,685.37l4.39,1.12l-4.4,17.22l-4.39-1.12L325.82,685.37z M327.4,679.04l4.45,1.14l-0.95,3.72l-4.45-1.14
				L327.4,679.04z"/>
			<path d="M333.66,700.78c0.65-3.3,3.23-4.33,6.86-4.13l3.93,0.29l0.23-1.18c0.43-2.15-0.42-2.84-3.27-3.41
				c-1.72-0.34-3.3-0.44-4.51-0.33l0.61-3.1c1.83-0.26,3.85-0.22,6.28,0.27c4.1,0.81,6.2,2.76,5.46,6.53l-2.47,12.48l-3.6-0.71
				l-0.06-1.48l-0.2-0.04c-0.97,0.86-2.59,1.27-4.78,0.84C334.94,706.17,333,704.14,333.66,700.78z M343.12,703.69l0.8-4.04
				L341,699.4c-1.68-0.16-2.61,0.29-2.93,1.9c-0.32,1.62,0.59,2.5,2.04,2.78C341.22,704.3,342.47,704.13,343.12,703.69z"/>
			<path d="M357.12,691.9l4.29,0.53l-0.19,1.57l0.17,0.02c1.64-0.94,3.81-1.47,5.99-1.2c3.37,0.41,4.97,2.03,4.54,5.53l-1.6,13.07
				l-4.49-0.55l1.47-12.02c0.2-1.67-0.33-2.43-2.5-2.69c-1.23-0.15-2.68,0.16-3.72,0.44l-1.65,13.48l-4.46-0.55L357.12,691.9z"/>
			<path d="M390.56,711.76l0.04-3.22c1.37,0.6,2.77,1.13,5.24,1.15c2.4,0.03,3.37-0.65,3.38-1.88c0.01-1.17-0.63-1.69-2.45-2.05
				l-1.64-0.4c-2.77-0.58-4.54-1.97-4.5-5.27c0.04-3.33,2.26-5.47,6.85-5.42c2.44,0.03,4.01,0.46,5.24,1.02l-0.04,3.22
				c-1.09-0.39-2.74-0.89-4.79-0.91c-2.02-0.02-3.03,0.59-3.04,1.82c-0.01,1.17,0.64,1.58,2.28,1.91l1.68,0.36
				c3.49,0.76,4.81,2.28,4.78,5.37c-0.04,3.74-2.53,5.63-7.13,5.58C394.11,713.04,391.92,712.53,390.56,711.76z"/>
			<path d="M409.47,704.17l-0.03-0.48c-0.34-5.79,3.02-9.26,8.06-9.56c5.48-0.33,8.75,2.67,9.1,8.4l0.03,0.48
				c0.35,5.82-3.02,9.22-8.06,9.52C413.02,712.87,409.81,709.79,409.47,704.17z M422.02,703.63l-0.05-0.82
				c-0.27-4.49-2.08-5.48-4.34-5.35c-2.47,0.15-3.81,1.88-3.58,5.68l0.05,0.75c0.26,4.42,2.08,5.48,4.34,5.35
				C420.9,709.1,422.25,707.37,422.02,703.63z"/>
			<path d="M432.45,702.6l-0.07-0.51c-0.8-6.06,2.42-9.49,7.63-10.18c2.28-0.3,3.73-0.07,4.94,0.43l0.44,3.37
				c-1.43-0.37-2.46-0.58-4.51-0.31c-2.86,0.38-4.38,2.24-3.93,5.67l0.09,0.68c0.51,3.88,2.22,5.28,5.45,4.86
				c2.08-0.27,3.46-1.08,4.29-1.63l0.42,3.23c-1.03,0.83-2.58,1.69-5.1,2.02C436.73,710.94,433.21,708.39,432.45,702.6z"/>
			<path d="M451.89,699.87l-0.1-0.51c-1.19-5.99,1.79-9.62,6.94-10.65c2.25-0.45,3.71-0.32,4.95,0.1l0.66,3.33
				c-1.45-0.27-2.5-0.41-4.52-0.01c-2.82,0.56-4.22,2.52-3.54,5.92l0.13,0.67c0.76,3.83,2.56,5.12,5.75,4.48
				c2.05-0.41,3.38-1.3,4.17-1.91l0.64,3.2c-0.98,0.89-2.46,1.85-4.95,2.35C456.7,707.9,453.02,705.58,451.89,699.87z"/>
			<path d="M471.06,695.71l-0.12-0.43c-1.54-5.66,1.05-9.56,5.69-10.83c5.2-1.41,8.18,0.94,9.68,6.43l0.43,1.59l-10.99,2.99
				c1.2,3.23,3.28,3.83,6.39,2.99c2.12-0.58,3.61-1.52,4.89-2.54l0.77,2.85c-0.98,1.12-2.78,2.47-5.76,3.28
				C476.3,703.6,472.55,701.21,471.06,695.71z M474.99,692.65l6.72-1.83c-0.82-3.01-2.22-3.84-4.34-3.26
				C475.81,687.98,474.34,689.35,474.99,692.65z"/>
			<path d="M489.96,680.8l4.09-1.4l0.68,1.98l0.16-0.05c0.44-1.57,1.83-3.03,3.62-3.64c0.45-0.16,0.85-0.26,1.02-0.2l1.29,3.77
				c-0.38,0.06-0.95,0.18-1.38,0.33c-1.5,0.51-2.81,1.44-3.64,2.41l4.18,12.18l-4.25,1.46L489.96,680.8z"/>
			<path d="M520.95,683.04c-1.42-3.04,0.06-5.4,3.1-7.39l3.34-2.09l-0.51-1.09c-0.93-1.99-2.01-2.05-4.66-0.82
				c-1.59,0.74-2.93,1.59-3.84,2.39l-1.33-2.86c1.33-1.3,2.98-2.45,5.22-3.49c3.79-1.77,6.64-1.43,8.26,2.05l5.38,11.53l-3.33,1.55
				l-0.92-1.16l-0.19,0.09c-0.28,1.27-1.34,2.56-3.36,3.5C525.17,686.64,522.4,686.15,520.95,683.04z M530.31,679.81l-1.74-3.73
				l-2.51,1.51c-1.45,0.87-1.94,1.78-1.24,3.27c0.7,1.49,1.95,1.67,3.29,1.04C529.13,681.42,530.05,680.54,530.31,679.81z"/>
			<path d="M541.97,677.17l-1.55-2.83c1.48-0.15,2.97-0.38,5.13-1.57c2.1-1.16,2.62-2.22,2.02-3.31c-0.56-1.02-1.38-1.16-3.14-0.58
				l-1.62,0.46c-2.7,0.86-4.93,0.51-6.52-2.38c-1.6-2.92-0.72-5.87,3.31-8.09c2.14-1.17,3.72-1.57,5.07-1.69l1.55,2.83
				c-1.15,0.2-2.82,0.57-4.62,1.56c-1.78,0.97-2.35,2-1.76,3.08c0.56,1.03,1.33,1.07,2.93,0.55l1.64-0.51
				c3.42-1.05,5.32-0.38,6.8,2.33c1.8,3.28,0.56,6.15-3.47,8.37C545.7,676.53,543.54,677.17,541.97,677.17z"/>
			<path d="M558.79,667.7l-1.72-2.72c1.47-0.24,2.93-0.56,5.02-1.88c2.03-1.28,2.47-2.38,1.81-3.42c-0.62-0.99-1.45-1.07-3.17-0.39
				l-1.59,0.56c-2.64,1.03-4.88,0.82-6.65-1.96c-1.78-2.81-1.08-5.81,2.8-8.27c2.06-1.3,3.61-1.8,4.95-2l1.72,2.73
				c-1.13,0.27-2.78,0.74-4.52,1.84c-1.71,1.08-2.22,2.14-1.56,3.18c0.62,0.98,1.4,0.98,2.95,0.36l1.6-0.61
				c3.34-1.26,5.28-0.7,6.93,1.9c2,3.16,0.94,6.1-2.94,8.56C562.46,666.83,560.35,667.6,558.79,667.7z"/>
			<path d="M570.6,651.1l-0.29-0.38c-3.49-4.63-2.6-9.38,1.43-12.42c4.38-3.3,8.77-2.61,12.22,1.96l0.29,0.39
				c3.51,4.66,2.58,9.35-1.45,12.39C578.35,656.39,573.98,655.6,570.6,651.1z M580.75,643.72l-0.5-0.66
				c-2.7-3.59-4.76-3.42-6.57-2.05c-1.97,1.49-2.13,3.67,0.16,6.71l0.45,0.6c2.66,3.53,4.76,3.42,6.57,2.05
				C582.84,648.88,583,646.7,580.75,643.72z"/>
			<path d="M588.94,637.25l-0.33-0.39c-3.96-4.66-3.12-9.29,0.88-12.69c1.75-1.49,3.09-2.09,4.38-2.33l2.2,2.59
				c-1.4,0.47-2.38,0.85-3.95,2.19c-2.2,1.87-2.46,4.26-0.22,6.9l0.44,0.52c2.54,2.98,4.73,3.23,7.22,1.12
				c1.6-1.36,2.32-2.78,2.71-3.7l2.11,2.49c-0.42,1.26-1.25,2.82-3.19,4.46C597.06,641.92,592.72,641.69,588.94,637.25z"/>
			<path d="M593.55,612.29l3.34-3.15l2.64,2.79l-3.34,3.16L593.55,612.29z M598.05,617l3.29-3.11l12.2,12.92l-3.29,3.11L598.05,617z
				"/>
			<path d="M615.3,618.57c-2.44-2.31-1.93-5.04,0.17-8.01l2.34-3.17l-0.87-0.82c-1.59-1.51-2.63-1.17-4.63,0.95
				c-1.2,1.27-2.14,2.56-2.69,3.64l-2.29-2.17c0.75-1.69,1.88-3.37,3.58-5.17c2.88-3.04,5.65-3.77,8.44-1.12l9.24,8.76l-2.53,2.67
				l-1.28-0.74l-0.14,0.15c0.2,1.28-0.31,2.87-1.85,4.49C620.54,620.37,617.79,620.93,615.3,618.57z M622.82,612.13l-2.99-2.83
				l-1.78,2.33c-1.03,1.34-1.15,2.36,0.05,3.49c1.2,1.13,2.42,0.83,3.44-0.24C622.31,614.06,622.84,612.91,622.82,612.13z"/>
			<path d="M631.14,601.58l-7.61-6.35l-1.52,1.82l-2.56-2.13l1.52-1.82l-3.21-2.68l2.83-3.4l3.21,2.68l2.62-3.14l2.55,2.13
				l-2.61,3.14l7.06,5.89c1.16,0.97,1.97,0.8,3.05-0.5c0.42-0.5,0.82-1.15,1.02-1.65l2.29,1.91c-0.16,0.72-0.55,1.78-1.67,3.12
				C636.05,603.09,633.85,603.85,631.14,601.58z"/>
			<path d="M625.14,577.57l2.77-3.67l3.07,2.32l-2.77,3.67L625.14,577.57z M630.36,581.48l2.73-3.62l14.19,10.72l-2.73,3.62
				L630.36,581.48z"/>
			<path d="M644.56,577.94l-0.4-0.27c-4.82-3.21-5.56-7.99-2.76-12.18c3.04-4.57,7.41-5.37,12.18-2.19l0.4,0.27
				c4.85,3.23,5.53,7.97,2.73,12.17C653.62,580.35,649.24,581.06,644.56,577.94z M651.69,567.61l-0.68-0.45
				c-3.74-2.49-5.62-1.65-6.88,0.24c-1.37,2.05-0.8,4.17,2.37,6.27l0.63,0.42c3.68,2.45,5.62,1.64,6.88-0.24
				C655.37,571.79,654.8,569.68,651.69,567.61z"/>
			<path d="M649.61,553.27l2.12-3.77l1.38,0.77l0.08-0.15c-0.25-1.87,0.08-4.09,1.16-6c1.66-2.97,3.76-3.83,6.85-2.11l11.5,6.44
				l-2.21,3.96l-10.57-5.92c-1.47-0.82-2.37-0.62-3.44,1.3c-0.6,1.08-0.87,2.54-1,3.61l11.86,6.64l-2.2,3.92L649.61,553.27z"/>
		</g>
		<g>
			<circle cx="203.35" cy="168.44" r="5.82"/>
		</g>
		<g>
			<circle cx="594.33" cy="168.44" r="5.82"/>
		</g>
		<g>
			<path d="M673.79,519.85c-0.16,0-0.32-0.03-0.48-0.1c-0.58-0.27-0.85-0.95-0.58-1.54c17.47-38.71,26.33-80.05,26.33-122.87
				c0-77.2-29.33-150.47-82.57-206.32c-0.44-0.46-0.43-1.2,0.04-1.65c0.47-0.44,1.2-0.43,1.65,0.04
				c53.66,56.29,83.22,130.13,83.22,207.93c0,43.15-8.92,84.81-26.53,123.83C674.66,519.6,674.23,519.85,673.79,519.85z"/>
		</g>
		<g>
			<path d="M126.21,519.85c-0.44,0-0.87-0.25-1.06-0.68c-17.61-39.01-26.53-80.68-26.53-123.83c0-77.8,29.55-151.64,83.22-207.93
				c0.44-0.47,1.18-0.48,1.65-0.04c0.46,0.45,0.48,1.18,0.04,1.65c-53.25,55.85-82.57,129.13-82.57,206.32
				c0,42.82,8.86,84.16,26.32,122.87c0.26,0.59,0,1.28-0.58,1.54C126.53,519.82,126.37,519.85,126.21,519.85z"/>
		</g>
	</g>
</g>
</svg>
